<?xml version="1.0" encoding="utf-8" standalone="no"?>
<!DOCTYPE svg PUBLIC "-//W3C//DTD SVG 1.1//EN"
  "http://www.w3.org/Graphics/SVG/1.1/DTD/svg11.dtd">
<svg xmlns:xlink="http://www.w3.org/1999/xlink" width="706.32pt" height="562.32pt" viewBox="0 0 706.32 562.32" xmlns="http://www.w3.org/2000/svg" version="1.1">
 <metadata>
  <rdf:RDF xmlns:dc="http://purl.org/dc/elements/1.1/" xmlns:cc="http://creativecommons.org/ns#" xmlns:rdf="http://www.w3.org/1999/02/22-rdf-syntax-ns#">
   <cc:Work>
    <dc:type rdf:resource="http://purl.org/dc/dcmitype/StillImage"/>
    <dc:date>2025-01-06T09:23:57.386100</dc:date>
    <dc:format>image/svg+xml</dc:format>
    <dc:creator>
     <cc:Agent>
      <dc:title>Matplotlib v3.10.0, https://matplotlib.org/</dc:title>
     </cc:Agent>
    </dc:creator>
   </cc:Work>
  </rdf:RDF>
 </metadata>
 <defs>
  <style type="text/css">*{stroke-linejoin: round; stroke-linecap: butt}</style>
 </defs>
 <g id="figure_1">
  <g id="patch_1">
   <path d="M 0 562.32 
L 706.32 562.32 
L 706.32 0 
L 0 0 
z
" style="fill: #ffffff"/>
  </g>
  <g id="axes_1">
   <g id="patch_2">
    <path d="M 46.12645 521.09532 
L 699.12 521.09532 
L 699.12 7.2 
L 46.12645 7.2 
z
" style="fill: #ffffff"/>
   </g>
   <g id="PathCollection_1">
    <defs>
     <path id="m3cfc2d4490" d="M 0 1.581139 
C 0.419323 1.581139 0.821528 1.41454 1.118034 1.118034 
C 1.41454 0.821528 1.581139 0.419323 1.581139 0 
C 1.581139 -0.419323 1.41454 -0.821528 1.118034 -1.118034 
C 0.821528 -1.41454 0.419323 -1.581139 0 -1.581139 
C -0.419323 -1.581139 -0.821528 -1.41454 -1.118034 -1.118034 
C -1.41454 -0.821528 -1.581139 -0.419323 -1.581139 0 
C -1.581139 0.419323 -1.41454 0.821528 -1.118034 1.118034 
C -0.821528 1.41454 -0.419323 1.581139 0 1.581139 
z
" style="stroke: #000000"/>
    </defs>
    <g clip-path="url(#pef55eada9d)">
     <use xlink:href="#m3cfc2d4490" x="75.807975" y="384.490894" style="stroke: #000000"/>
     <use xlink:href="#m3cfc2d4490" x="79.792072" y="361.776568" style="stroke: #000000"/>
     <use xlink:href="#m3cfc2d4490" x="83.776169" y="352.922359" style="stroke: #000000"/>
     <use xlink:href="#m3cfc2d4490" x="87.760266" y="343.951515" style="stroke: #000000"/>
     <use xlink:href="#m3cfc2d4490" x="91.744364" y="342.865928" style="stroke: #000000"/>
     <use xlink:href="#m3cfc2d4490" x="95.728461" y="318.046166" style="stroke: #000000"/>
     <use xlink:href="#m3cfc2d4490" x="99.712558" y="323.657849" style="stroke: #000000"/>
     <use xlink:href="#m3cfc2d4490" x="115.648948" y="292.252198" style="stroke: #000000"/>
     <use xlink:href="#m3cfc2d4490" x="119.633045" y="271.560054" style="stroke: #000000"/>
     <use xlink:href="#m3cfc2d4490" x="123.617142" y="275.280754" style="stroke: #000000"/>
     <use xlink:href="#m3cfc2d4490" x="131.585337" y="254.899209" style="stroke: #000000"/>
     <use xlink:href="#m3cfc2d4490" x="135.569434" y="246.952505" style="stroke: #000000"/>
     <use xlink:href="#m3cfc2d4490" x="139.553532" y="241.64284" style="stroke: #000000"/>
     <use xlink:href="#m3cfc2d4490" x="143.537629" y="239.615852" style="stroke: #000000"/>
     <use xlink:href="#m3cfc2d4490" x="147.521726" y="242.044658" style="stroke: #000000"/>
     <use xlink:href="#m3cfc2d4490" x="151.505824" y="230.018704" style="stroke: #000000"/>
     <use xlink:href="#m3cfc2d4490" x="155.489921" y="235.609124" style="stroke: #000000"/>
     <use xlink:href="#m3cfc2d4490" x="159.474018" y="220.028953" style="stroke: #000000"/>
     <use xlink:href="#m3cfc2d4490" x="167.442213" y="213.564903" style="stroke: #000000"/>
     <use xlink:href="#m3cfc2d4490" x="175.410408" y="203.514107" style="stroke: #000000"/>
     <use xlink:href="#m3cfc2d4490" x="179.394505" y="203.448572" style="stroke: #000000"/>
     <use xlink:href="#m3cfc2d4490" x="183.378602" y="215.072473" style="stroke: #000000"/>
     <use xlink:href="#m3cfc2d4490" x="187.362699" y="210.027515" style="stroke: #000000"/>
     <use xlink:href="#m3cfc2d4490" x="191.346797" y="197.731727" style="stroke: #000000"/>
     <use xlink:href="#m3cfc2d4490" x="195.330894" y="200.340127" style="stroke: #000000"/>
     <use xlink:href="#m3cfc2d4490" x="199.314991" y="202.32635" style="stroke: #000000"/>
     <use xlink:href="#m3cfc2d4490" x="207.283186" y="132.774355" style="stroke: #000000"/>
     <use xlink:href="#m3cfc2d4490" x="211.267283" y="191.563105" style="stroke: #000000"/>
     <use xlink:href="#m3cfc2d4490" x="219.235478" y="193.573498" style="stroke: #000000"/>
     <use xlink:href="#m3cfc2d4490" x="227.203673" y="204.490169" style="stroke: #000000"/>
     <use xlink:href="#m3cfc2d4490" x="231.18777" y="193.49142" style="stroke: #000000"/>
     <use xlink:href="#m3cfc2d4490" x="235.171867" y="194.023722" style="stroke: #000000"/>
     <use xlink:href="#m3cfc2d4490" x="239.155965" y="202.739803" style="stroke: #000000"/>
     <use xlink:href="#m3cfc2d4490" x="243.140062" y="197.110776" style="stroke: #000000"/>
     <use xlink:href="#m3cfc2d4490" x="247.124159" y="204.236506" style="stroke: #000000"/>
     <use xlink:href="#m3cfc2d4490" x="255.092354" y="203.816224" style="stroke: #000000"/>
     <use xlink:href="#m3cfc2d4490" x="259.076451" y="448.174245" style="stroke: #000000"/>
     <use xlink:href="#m3cfc2d4490" x="271.028743" y="208.698715" style="stroke: #000000"/>
     <use xlink:href="#m3cfc2d4490" x="275.01284" y="212.804071" style="stroke: #000000"/>
     <use xlink:href="#m3cfc2d4490" x="278.996938" y="234.738943" style="stroke: #000000"/>
     <use xlink:href="#m3cfc2d4490" x="282.981035" y="218.951985" style="stroke: #000000"/>
     <use xlink:href="#m3cfc2d4490" x="286.965132" y="223.679906" style="stroke: #000000"/>
     <use xlink:href="#m3cfc2d4490" x="294.933327" y="234.648558" style="stroke: #000000"/>
     <use xlink:href="#m3cfc2d4490" x="298.917424" y="231.691099" style="stroke: #000000"/>
     <use xlink:href="#m3cfc2d4490" x="302.901522" y="234.500381" style="stroke: #000000"/>
     <use xlink:href="#m3cfc2d4490" x="306.885619" y="238.291529" style="stroke: #000000"/>
     <use xlink:href="#m3cfc2d4490" x="310.869716" y="242.749088" style="stroke: #000000"/>
     <use xlink:href="#m3cfc2d4490" x="314.853814" y="258.474753" style="stroke: #000000"/>
     <use xlink:href="#m3cfc2d4490" x="318.837911" y="54.554998" style="stroke: #000000"/>
     <use xlink:href="#m3cfc2d4490" x="330.790203" y="262.157657" style="stroke: #000000"/>
     <use xlink:href="#m3cfc2d4490" x="338.758398" y="273.705767" style="stroke: #000000"/>
     <use xlink:href="#m3cfc2d4490" x="342.742495" y="30.558878" style="stroke: #000000"/>
     <use xlink:href="#m3cfc2d4490" x="358.678884" y="309.447579" style="stroke: #000000"/>
     <use xlink:href="#m3cfc2d4490" x="362.662981" y="391.408481" style="stroke: #000000"/>
     <use xlink:href="#m3cfc2d4490" x="366.647079" y="295.66503" style="stroke: #000000"/>
     <use xlink:href="#m3cfc2d4490" x="370.631176" y="301.582507" style="stroke: #000000"/>
     <use xlink:href="#m3cfc2d4490" x="374.615273" y="309.618193" style="stroke: #000000"/>
     <use xlink:href="#m3cfc2d4490" x="382.583468" y="331.388572" style="stroke: #000000"/>
     <use xlink:href="#m3cfc2d4490" x="386.567565" y="332.648586" style="stroke: #000000"/>
     <use xlink:href="#m3cfc2d4490" x="390.551663" y="331.168325" style="stroke: #000000"/>
     <use xlink:href="#m3cfc2d4490" x="394.53576" y="340.27645" style="stroke: #000000"/>
     <use xlink:href="#m3cfc2d4490" x="398.519857" y="342.734463" style="stroke: #000000"/>
     <use xlink:href="#m3cfc2d4490" x="402.503955" y="345.053671" style="stroke: #000000"/>
     <use xlink:href="#m3cfc2d4490" x="406.488052" y="385.661687" style="stroke: #000000"/>
     <use xlink:href="#m3cfc2d4490" x="410.472149" y="363.247406" style="stroke: #000000"/>
     <use xlink:href="#m3cfc2d4490" x="414.456247" y="367.794278" style="stroke: #000000"/>
     <use xlink:href="#m3cfc2d4490" x="422.424441" y="374.379313" style="stroke: #000000"/>
     <use xlink:href="#m3cfc2d4490" x="426.408539" y="384.202508" style="stroke: #000000"/>
     <use xlink:href="#m3cfc2d4490" x="430.392636" y="275.350258" style="stroke: #000000"/>
     <use xlink:href="#m3cfc2d4490" x="434.376733" y="389.214206" style="stroke: #000000"/>
     <use xlink:href="#m3cfc2d4490" x="438.360831" y="397.411168" style="stroke: #000000"/>
     <use xlink:href="#m3cfc2d4490" x="442.344928" y="404.180012" style="stroke: #000000"/>
     <use xlink:href="#m3cfc2d4490" x="450.313122" y="412.29163" style="stroke: #000000"/>
     <use xlink:href="#m3cfc2d4490" x="454.29722" y="426.594478" style="stroke: #000000"/>
     <use xlink:href="#m3cfc2d4490" x="458.281317" y="414.448289" style="stroke: #000000"/>
     <use xlink:href="#m3cfc2d4490" x="462.265414" y="419.693468" style="stroke: #000000"/>
     <use xlink:href="#m3cfc2d4490" x="470.233609" y="423.062829" style="stroke: #000000"/>
     <use xlink:href="#m3cfc2d4490" x="474.217706" y="441.795833" style="stroke: #000000"/>
     <use xlink:href="#m3cfc2d4490" x="494.138193" y="457.584366" style="stroke: #000000"/>
     <use xlink:href="#m3cfc2d4490" x="502.106388" y="302.444343" style="stroke: #000000"/>
     <use xlink:href="#m3cfc2d4490" x="506.090485" y="285.622499" style="stroke: #000000"/>
     <use xlink:href="#m3cfc2d4490" x="510.074582" y="456.030224" style="stroke: #000000"/>
     <use xlink:href="#m3cfc2d4490" x="514.05868" y="463.198344" style="stroke: #000000"/>
     <use xlink:href="#m3cfc2d4490" x="518.042777" y="473.750713" style="stroke: #000000"/>
     <use xlink:href="#m3cfc2d4490" x="529.995069" y="471.224922" style="stroke: #000000"/>
     <use xlink:href="#m3cfc2d4490" x="533.979166" y="481.424822" style="stroke: #000000"/>
     <use xlink:href="#m3cfc2d4490" x="541.947361" y="488.861641" style="stroke: #000000"/>
     <use xlink:href="#m3cfc2d4490" x="545.931458" y="489.958736" style="stroke: #000000"/>
     <use xlink:href="#m3cfc2d4490" x="549.915555" y="486.719518" style="stroke: #000000"/>
     <use xlink:href="#m3cfc2d4490" x="553.899653" y="484.011047" style="stroke: #000000"/>
     <use xlink:href="#m3cfc2d4490" x="557.88375" y="268.167693" style="stroke: #000000"/>
     <use xlink:href="#m3cfc2d4490" x="565.851945" y="496.968827" style="stroke: #000000"/>
     <use xlink:href="#m3cfc2d4490" x="569.836042" y="497.736441" style="stroke: #000000"/>
     <use xlink:href="#m3cfc2d4490" x="585.772431" y="316.371082" style="stroke: #000000"/>
     <use xlink:href="#m3cfc2d4490" x="589.756529" y="489.6325" style="stroke: #000000"/>
     <use xlink:href="#m3cfc2d4490" x="597.724723" y="490.938986" style="stroke: #000000"/>
     <use xlink:href="#m3cfc2d4490" x="601.708821" y="421.168515" style="stroke: #000000"/>
     <use xlink:href="#m3cfc2d4490" x="605.692918" y="488.856077" style="stroke: #000000"/>
     <use xlink:href="#m3cfc2d4490" x="609.677015" y="468.871806" style="stroke: #000000"/>
     <use xlink:href="#m3cfc2d4490" x="613.661113" y="473.102256" style="stroke: #000000"/>
     <use xlink:href="#m3cfc2d4490" x="617.64521" y="472.962765" style="stroke: #000000"/>
     <use xlink:href="#m3cfc2d4490" x="621.629307" y="471.037714" style="stroke: #000000"/>
     <use xlink:href="#m3cfc2d4490" x="625.613404" y="470.358189" style="stroke: #000000"/>
     <use xlink:href="#m3cfc2d4490" x="629.597502" y="366.312113" style="stroke: #000000"/>
     <use xlink:href="#m3cfc2d4490" x="633.581599" y="458.010412" style="stroke: #000000"/>
     <use xlink:href="#m3cfc2d4490" x="637.565696" y="453.061704" style="stroke: #000000"/>
     <use xlink:href="#m3cfc2d4490" x="641.549794" y="448.96079" style="stroke: #000000"/>
     <use xlink:href="#m3cfc2d4490" x="645.533891" y="451.991466" style="stroke: #000000"/>
     <use xlink:href="#m3cfc2d4490" x="649.517988" y="442.383254" style="stroke: #000000"/>
     <use xlink:href="#m3cfc2d4490" x="653.502086" y="429.848148" style="stroke: #000000"/>
     <use xlink:href="#m3cfc2d4490" x="657.486183" y="433.558052" style="stroke: #000000"/>
     <use xlink:href="#m3cfc2d4490" x="661.47028" y="421.02633" style="stroke: #000000"/>
     <use xlink:href="#m3cfc2d4490" x="665.454378" y="413.791026" style="stroke: #000000"/>
     <use xlink:href="#m3cfc2d4490" x="669.438475" y="406.971734" style="stroke: #000000"/>
    </g>
   </g>
   <g id="matplotlib.axis_1">
    <g id="xtick_1">
     <g id="line2d_1">
      <defs>
       <path id="m666acf46a1" d="M 0 0 
L 0 3.5 
" style="stroke: #000000; stroke-width: 0.8"/>
      </defs>
      <g>
       <use xlink:href="#m666acf46a1" x="75.807975" y="521.09532" style="stroke: #000000; stroke-width: 0.8"/>
      </g>
     </g>
     <g id="text_1">
      <!-- $\mathdefault{−4}$ -->
      <g transform="translate(67.60092 537.089348) scale(0.13 -0.13)">
       <defs>
        <path id="CMSY10-0" d="M 4218 1472 
C 4326 1472 4442 1472 4442 1600 
C 4442 1728 4326 1728 4218 1728 
L 755 1728 
C 646 1728 531 1728 531 1600 
C 531 1472 646 1472 755 1472 
L 4218 1472 
z
" transform="scale(0.015625)"/>
        <path id="CMR17-34" d="M 2150 4122 
C 2150 4256 2144 4256 2029 4256 
L 128 1254 
L 128 1088 
L 1779 1088 
L 1779 457 
C 1779 224 1766 160 1318 160 
L 1197 160 
L 1197 0 
C 1402 0 1747 0 1965 0 
C 2182 0 2528 0 2733 0 
L 2733 160 
L 2611 160 
C 2163 160 2150 224 2150 457 
L 2150 1088 
L 2803 1088 
L 2803 1254 
L 2150 1254 
L 2150 4122 
z
M 1798 3703 
L 1798 1254 
L 256 1254 
L 1798 3703 
z
" transform="scale(0.015625)"/>
       </defs>
       <use xlink:href="#CMSY10-0" transform="scale(0.996264)"/>
       <use xlink:href="#CMR17-34" transform="translate(77.487468 0) scale(0.996264)"/>
      </g>
     </g>
    </g>
    <g id="xtick_2">
     <g id="line2d_2">
      <g>
       <use xlink:href="#m666acf46a1" x="160.612332" y="521.09532" style="stroke: #000000; stroke-width: 0.8"/>
      </g>
     </g>
     <g id="text_2">
      <!-- $\mathdefault{−3}$ -->
      <g transform="translate(152.405277 537.089348) scale(0.13 -0.13)">
       <defs>
        <path id="CMR17-33" d="M 1414 2157 
C 1984 2157 2234 1662 2234 1090 
C 2234 320 1824 25 1453 25 
C 1114 25 563 194 390 693 
C 422 680 454 680 486 680 
C 640 680 755 782 755 948 
C 755 1133 614 1216 486 1216 
C 378 1216 211 1165 211 926 
C 211 335 787 -128 1466 -128 
C 2176 -128 2720 430 2720 1085 
C 2720 1707 2208 2157 1600 2227 
C 2086 2328 2554 2756 2554 3329 
C 2554 3820 2048 4179 1472 4179 
C 890 4179 378 3829 378 3329 
C 378 3110 544 3072 627 3072 
C 762 3072 877 3155 877 3321 
C 877 3486 762 3569 627 3569 
C 602 3569 570 3569 544 3557 
C 730 3959 1235 4032 1459 4032 
C 1683 4032 2106 3925 2106 3320 
C 2106 3143 2080 2828 1862 2550 
C 1670 2304 1453 2304 1242 2284 
C 1210 2284 1062 2269 1037 2269 
C 992 2263 966 2257 966 2208 
C 966 2163 973 2157 1101 2157 
L 1414 2157 
z
" transform="scale(0.015625)"/>
       </defs>
       <use xlink:href="#CMSY10-0" transform="scale(0.996264)"/>
       <use xlink:href="#CMR17-33" transform="translate(77.487468 0) scale(0.996264)"/>
      </g>
     </g>
    </g>
    <g id="xtick_3">
     <g id="line2d_3">
      <g>
       <use xlink:href="#m666acf46a1" x="245.416689" y="521.09532" style="stroke: #000000; stroke-width: 0.8"/>
      </g>
     </g>
     <g id="text_3">
      <!-- $\mathdefault{−2}$ -->
      <g transform="translate(237.209634 537.089348) scale(0.13 -0.13)">
       <defs>
        <path id="CMR17-32" d="M 2669 989 
L 2554 989 
C 2490 536 2438 459 2413 420 
C 2381 369 1920 369 1830 369 
L 602 369 
C 832 619 1280 1072 1824 1597 
C 2214 1967 2669 2402 2669 3035 
C 2669 3790 2067 4224 1395 4224 
C 691 4224 262 3604 262 3030 
C 262 2780 448 2748 525 2748 
C 589 2748 781 2787 781 3010 
C 781 3207 614 3264 525 3264 
C 486 3264 448 3258 422 3245 
C 544 3790 915 4058 1306 4058 
C 1862 4058 2227 3617 2227 3035 
C 2227 2479 1901 2000 1536 1584 
L 262 146 
L 262 0 
L 2515 0 
L 2669 989 
z
" transform="scale(0.015625)"/>
       </defs>
       <use xlink:href="#CMSY10-0" transform="scale(0.996264)"/>
       <use xlink:href="#CMR17-32" transform="translate(77.487468 0) scale(0.996264)"/>
      </g>
     </g>
    </g>
    <g id="xtick_4">
     <g id="line2d_4">
      <g>
       <use xlink:href="#m666acf46a1" x="330.221046" y="521.09532" style="stroke: #000000; stroke-width: 0.8"/>
      </g>
     </g>
     <g id="text_4">
      <!-- $\mathdefault{−1}$ -->
      <g transform="translate(322.013991 537.089348) scale(0.13 -0.13)">
       <defs>
        <path id="CMR17-31" d="M 1702 4058 
C 1702 4192 1696 4192 1606 4192 
C 1357 3916 979 3827 621 3827 
C 602 3827 570 3827 563 3808 
C 557 3795 557 3782 557 3648 
C 755 3648 1088 3686 1344 3839 
L 1344 461 
C 1344 236 1331 160 781 160 
L 589 160 
L 589 0 
C 896 0 1216 0 1523 0 
C 1830 0 2150 0 2458 0 
L 2458 160 
L 2266 160 
C 1715 160 1702 230 1702 458 
L 1702 4058 
z
" transform="scale(0.015625)"/>
       </defs>
       <use xlink:href="#CMSY10-0" transform="scale(0.996264)"/>
       <use xlink:href="#CMR17-31" transform="translate(77.487468 0) scale(0.996264)"/>
      </g>
     </g>
    </g>
    <g id="xtick_5">
     <g id="line2d_5">
      <g>
       <use xlink:href="#m666acf46a1" x="415.025403" y="521.09532" style="stroke: #000000; stroke-width: 0.8"/>
      </g>
     </g>
     <g id="text_5">
      <!-- $\mathdefault{0}$ -->
      <g transform="translate(411.855034 537.089348) scale(0.13 -0.13)">
       <defs>
        <path id="CMR17-30" d="M 2688 2025 
C 2688 2416 2682 3080 2413 3591 
C 2176 4039 1798 4198 1466 4198 
C 1158 4198 768 4058 525 3597 
C 269 3118 243 2524 243 2025 
C 243 1661 250 1106 448 619 
C 723 -39 1216 -128 1466 -128 
C 1760 -128 2208 -7 2470 600 
C 2662 1042 2688 1559 2688 2025 
z
M 1466 -26 
C 1056 -26 813 325 723 812 
C 653 1188 653 1738 653 2096 
C 653 2588 653 2997 736 3387 
C 858 3929 1216 4096 1466 4096 
C 1728 4096 2067 3923 2189 3400 
C 2272 3036 2278 2607 2278 2096 
C 2278 1680 2278 1169 2202 792 
C 2067 95 1690 -26 1466 -26 
z
" transform="scale(0.015625)"/>
       </defs>
       <use xlink:href="#CMR17-30" transform="scale(0.996264)"/>
      </g>
     </g>
    </g>
    <g id="xtick_6">
     <g id="line2d_6">
      <g>
       <use xlink:href="#m666acf46a1" x="499.829761" y="521.09532" style="stroke: #000000; stroke-width: 0.8"/>
      </g>
     </g>
     <g id="text_6">
      <!-- $\mathdefault{1}$ -->
      <g transform="translate(496.659391 537.089348) scale(0.13 -0.13)">
       <use xlink:href="#CMR17-31" transform="scale(0.996264)"/>
      </g>
     </g>
    </g>
    <g id="xtick_7">
     <g id="line2d_7">
      <g>
       <use xlink:href="#m666acf46a1" x="584.634118" y="521.09532" style="stroke: #000000; stroke-width: 0.8"/>
      </g>
     </g>
     <g id="text_7">
      <!-- $\mathdefault{2}$ -->
      <g transform="translate(581.463748 537.089348) scale(0.13 -0.13)">
       <use xlink:href="#CMR17-32" transform="scale(0.996264)"/>
      </g>
     </g>
    </g>
    <g id="xtick_8">
     <g id="line2d_8">
      <g>
       <use xlink:href="#m666acf46a1" x="669.438475" y="521.09532" style="stroke: #000000; stroke-width: 0.8"/>
      </g>
     </g>
     <g id="text_8">
      <!-- $\mathdefault{3}$ -->
      <g transform="translate(666.268105 537.089348) scale(0.13 -0.13)">
       <use xlink:href="#CMR17-33" transform="scale(0.996264)"/>
      </g>
     </g>
    </g>
    <g id="text_9">
     <!-- x -->
     <g transform="translate(369.276727 552.601688) scale(0.13 -0.13)">
      <defs>
       <path id="CMR17-78" d="M 1664 1477 
C 1856 1726 2074 2006 2253 2216 
C 2464 2458 2707 2560 2989 2560 
L 2989 2726 
C 2880 2726 2656 2726 2541 2726 
C 2368 2726 2170 2726 2022 2732 
L 2022 2566 
C 2112 2553 2163 2489 2163 2400 
C 2163 2285 2099 2215 2067 2171 
L 1594 1573 
L 1030 2306 
C 973 2376 973 2388 973 2420 
C 973 2497 1037 2560 1146 2560 
L 1146 2732 
C 992 2726 717 2726 557 2726 
C 384 2726 179 2726 38 2732 
L 38 2560 
C 384 2560 461 2534 614 2343 
L 1350 1395 
C 1363 1382 1395 1344 1395 1325 
C 1395 1299 838 619 768 530 
C 480 185 179 160 6 160 
L 6 0 
C 115 0 339 0 454 0 
C 582 0 864 0 979 -6 
L 979 160 
C 941 166 838 179 838 325 
C 838 440 890 510 947 586 
L 1478 1236 
L 2035 512 
C 2086 442 2163 346 2163 301 
C 2163 211 2086 160 1984 160 
L 1984 -6 
C 2138 0 2413 0 2573 0 
C 2746 0 2950 0 3091 -6 
L 3091 160 
C 2771 160 2675 172 2522 370 
L 1664 1477 
z
" transform="scale(0.015625)"/>
      </defs>
      <use xlink:href="#CMR17-78" transform="scale(0.996264)"/>
     </g>
    </g>
   </g>
   <g id="matplotlib.axis_2">
    <g id="ytick_1">
     <g id="line2d_9">
      <defs>
       <path id="mec0ffc6f6f" d="M 0 0 
L -3.5 0 
" style="stroke: #000000; stroke-width: 0.8"/>
      </defs>
      <g>
       <use xlink:href="#mec0ffc6f6f" x="46.12645" y="421.255391" style="stroke: #000000; stroke-width: 0.8"/>
      </g>
     </g>
     <g id="text_10">
      <!-- $\mathdefault{−2}$ -->
      <g transform="translate(22.71234 425.752405) scale(0.13 -0.13)">
       <use xlink:href="#CMSY10-0" transform="scale(0.996264)"/>
       <use xlink:href="#CMR17-32" transform="translate(77.487468 0) scale(0.996264)"/>
      </g>
     </g>
    </g>
    <g id="ytick_2">
     <g id="line2d_10">
      <g>
       <use xlink:href="#mec0ffc6f6f" x="46.12645" y="315.149399" style="stroke: #000000; stroke-width: 0.8"/>
      </g>
     </g>
     <g id="text_11">
      <!-- $\mathdefault{0}$ -->
      <g transform="translate(32.78571 319.646413) scale(0.13 -0.13)">
       <use xlink:href="#CMR17-30" transform="scale(0.996264)"/>
      </g>
     </g>
    </g>
    <g id="ytick_3">
     <g id="line2d_11">
      <g>
       <use xlink:href="#mec0ffc6f6f" x="46.12645" y="209.043406" style="stroke: #000000; stroke-width: 0.8"/>
      </g>
     </g>
     <g id="text_12">
      <!-- $\mathdefault{2}$ -->
      <g transform="translate(32.78571 213.54042) scale(0.13 -0.13)">
       <use xlink:href="#CMR17-32" transform="scale(0.996264)"/>
      </g>
     </g>
    </g>
    <g id="ytick_4">
     <g id="line2d_12">
      <g>
       <use xlink:href="#mec0ffc6f6f" x="46.12645" y="102.937414" style="stroke: #000000; stroke-width: 0.8"/>
      </g>
     </g>
     <g id="text_13">
      <!-- $\mathdefault{4}$ -->
      <g transform="translate(32.78571 107.434428) scale(0.13 -0.13)">
       <use xlink:href="#CMR17-34" transform="scale(0.996264)"/>
      </g>
     </g>
    </g>
    <g id="text_14">
     <!-- y -->
     <g transform="translate(16.194028 267.494157) rotate(-90) scale(0.13 -0.13)">
      <defs>
       <path id="CMR17-79" d="M 2496 2197 
C 2656 2586 2944 2586 3034 2586 
L 3034 2752 
C 2912 2752 2752 2752 2630 2752 
C 2496 2752 2285 2752 2157 2758 
L 2157 2592 
C 2400 2573 2406 2394 2406 2343 
C 2406 2280 2394 2248 2362 2171 
L 1664 449 
L 902 2306 
C 870 2382 870 2426 870 2433 
C 870 2573 1018 2586 1171 2586 
L 1171 2758 
C 1018 2752 742 2752 582 2752 
C 410 2752 205 2752 64 2758 
L 64 2586 
C 410 2586 448 2554 531 2350 
L 1485 15 
C 1197 -738 1030 -1178 627 -1178 
C 557 -1178 397 -1159 282 -1044 
C 429 -1031 493 -942 493 -833 
C 493 -725 416 -629 288 -629 
C 147 -629 77 -725 77 -840 
C 77 -1095 339 -1280 627 -1280 
C 998 -1280 1229 -922 1357 -604 
L 2496 2197 
z
" transform="scale(0.015625)"/>
      </defs>
      <use xlink:href="#CMR17-79" transform="scale(0.996264)"/>
     </g>
    </g>
   </g>
   <g id="line2d_13">
    <path d="M 75.807975 339.995435 
L 117.501087 339.995435 
L 119.486473 235.246266 
L 391.484395 235.246266 
L 393.469781 378.716341 
L 506.636799 378.716341 
L 508.622186 449.917207 
L 669.438475 449.917207 
L 669.438475 449.917207 
" clip-path="url(#pef55eada9d)" style="fill: none; stroke: #008000; stroke-width: 2; stroke-linecap: square"/>
   </g>
   <g id="line2d_14">
    <path d="M 75.807975 384.490894 
L 77.793361 384.490894 
L 79.778747 357.349463 
L 85.734906 357.349463 
L 87.720292 343.408721 
L 93.676451 343.408721 
L 95.661837 318.046166 
L 97.647224 318.046166 
L 99.63261 323.657849 
L 107.574155 323.657849 
L 109.559541 292.252198 
L 117.501087 292.252198 
L 119.486473 253.142268 
L 149.267267 253.142268 
L 151.252654 217.425662 
L 339.864351 217.425662 
L 341.849737 30.558878 
L 349.791282 30.558878 
L 351.776669 309.447579 
L 359.718214 309.447579 
L 361.7036 391.408481 
L 363.688986 391.408481 
L 365.674373 302.288576 
L 377.58669 302.288576 
L 379.572077 331.735161 
L 391.484395 331.735161 
L 393.469781 362.918722 
L 427.221348 362.918722 
L 429.206734 275.350258 
L 431.19212 275.350258 
L 433.177507 410.86201 
L 470.899846 410.86201 
L 472.885232 449.690099 
L 496.709868 449.690099 
L 498.695254 302.444343 
L 502.666027 302.444343 
L 504.651413 285.622499 
L 506.636799 285.622499 
L 508.622186 459.614284 
L 514.578344 459.614284 
L 516.563731 472.487817 
L 530.461435 472.487817 
L 532.446821 481.424822 
L 536.417594 481.424822 
L 538.40298 487.387735 
L 554.28607 487.387735 
L 556.271457 268.167693 
L 560.242229 268.167693 
L 562.227615 463.167096 
L 625.759977 463.167096 
L 627.745363 429.628639 
L 669.438475 429.628639 
L 669.438475 429.628639 
" clip-path="url(#pef55eada9d)" style="fill: none; stroke: #ff0000; stroke-width: 2; stroke-linecap: square"/>
   </g>
   <g id="patch_3">
    <path d="M 46.12645 521.09532 
L 46.12645 7.2 
" style="fill: none; stroke: #000000; stroke-width: 0.8; stroke-linejoin: miter; stroke-linecap: square"/>
   </g>
   <g id="patch_4">
    <path d="M 699.12 521.09532 
L 699.12 7.2 
" style="fill: none; stroke: #000000; stroke-width: 0.8; stroke-linejoin: miter; stroke-linecap: square"/>
   </g>
   <g id="patch_5">
    <path d="M 46.12645 521.09532 
L 699.12 521.09532 
" style="fill: none; stroke: #000000; stroke-width: 0.8; stroke-linejoin: miter; stroke-linecap: square"/>
   </g>
   <g id="patch_6">
    <path d="M 46.12645 7.2 
L 699.12 7.2 
" style="fill: none; stroke: #000000; stroke-width: 0.8; stroke-linejoin: miter; stroke-linecap: square"/>
   </g>
   <g id="legend_1">
    <g id="patch_7">
     <path d="M 600.512191 71.954936 
L 690.02 71.954936 
Q 692.62 71.954936 692.62 69.354936 
L 692.62 16.3 
Q 692.62 13.7 690.02 13.7 
L 600.512191 13.7 
Q 597.912191 13.7 597.912191 16.3 
L 597.912191 69.354936 
Q 597.912191 71.954936 600.512191 71.954936 
z
" style="fill: #ffffff; opacity: 0.8; stroke: #cccccc; stroke-linejoin: miter"/>
    </g>
    <g id="PathCollection_2">
     <g>
      <use xlink:href="#m3cfc2d4490" x="616.112191" y="24.5875" style="stroke: #000000"/>
     </g>
    </g>
    <g id="text_15">
     <!-- Data -->
     <g transform="translate(639.512191 28) scale(0.13 -0.13)">
      <defs>
       <path id="CMR17-44" d="M 333 4352 
L 333 4186 
C 774 4186 845 4186 845 3900 
L 845 452 
C 845 166 774 166 333 166 
L 333 0 
L 2368 0 
C 3398 0 4224 943 4224 2141 
C 4224 3346 3411 4352 2368 4352 
L 333 4352 
z
M 1523 166 
C 1267 166 1254 197 1254 414 
L 1254 3938 
C 1254 4155 1267 4186 1523 4186 
L 2240 4186 
C 2771 4186 3750 3874 3750 2141 
C 3750 1242 3488 879 3366 707 
C 3213 510 2848 166 2240 166 
L 1523 166 
z
" transform="scale(0.015625)"/>
       <path id="CMR17-61" d="M 2304 1653 
C 2304 2072 2304 2294 2035 2543 
C 1798 2752 1523 2816 1306 2816 
C 800 2816 435 2407 435 1971 
C 435 1728 627 1728 666 1728 
C 749 1728 896 1778 896 1954 
C 896 2112 774 2181 666 2181 
C 640 2181 608 2174 589 2168 
C 723 2592 1069 2714 1293 2714 
C 1613 2714 1965 2429 1965 1885 
L 1965 1600 
C 1587 1600 1133 1549 774 1357 
C 371 1133 256 813 256 570 
C 256 77 832 -64 1171 -64 
C 1523 -64 1850 139 1990 511 
C 2003 233 2182 -18 2464 -18 
C 2598 -18 2938 70 2938 567 
L 2938 920 
L 2822 920 
L 2822 562 
C 2822 178 2650 128 2566 128 
C 2304 128 2304 458 2304 738 
L 2304 1653 
z
M 1965 870 
C 1965 317 1568 38 1216 38 
C 896 38 646 275 646 570 
C 646 761 730 1100 1101 1305 
C 1408 1478 1760 1504 1965 1504 
L 1965 870 
z
" transform="scale(0.015625)"/>
       <path id="CMR17-74" d="M 966 2560 
L 1862 2560 
L 1862 2725 
L 966 2725 
L 966 3904 
L 851 3904 
C 838 3245 614 2668 70 2668 
L 70 2560 
L 627 2560 
L 627 771 
C 627 650 627 -64 1370 -64 
C 1747 -64 1965 306 1965 777 
L 1965 1140 
L 1850 1140 
L 1850 783 
C 1850 344 1677 51 1408 51 
C 1222 51 966 178 966 758 
L 966 2560 
z
" transform="scale(0.015625)"/>
      </defs>
      <use xlink:href="#CMR17-44" transform="scale(0.996264)"/>
      <use xlink:href="#CMR17-61" transform="translate(70.393556 0) scale(0.996264)"/>
      <use xlink:href="#CMR17-74" transform="translate(116.084033 0) scale(0.996264)"/>
      <use xlink:href="#CMR17-61" transform="translate(151.364801 0) scale(0.996264)"/>
     </g>
    </g>
    <g id="line2d_15">
     <path d="M 603.112191 41.568312 
L 616.112191 41.568312 
L 629.112191 41.568312 
" style="fill: none; stroke: #008000; stroke-width: 2; stroke-linecap: square"/>
    </g>
    <g id="text_16">
     <!-- depth=2 -->
     <g transform="translate(639.512191 46.118312) scale(0.13 -0.13)">
      <defs>
       <path id="CMR17-64" d="M 1869 4326 
L 1869 4160 
C 2246 4160 2304 4122 2304 3820 
L 2304 2345 
C 2278 2377 2016 2790 1498 2790 
C 845 2790 211 2208 211 1364 
C 211 525 806 -64 1434 -64 
C 1978 -64 2259 337 2291 380 
L 2291 -63 
L 3066 -63 
L 3066 128 
C 2688 128 2630 166 2630 473 
L 2630 4396 
L 1869 4326 
z
M 2291 755 
C 2291 563 2176 390 2029 262 
C 1811 70 1594 38 1472 38 
C 1286 38 621 134 621 1356 
C 621 2612 1363 2688 1530 2688 
C 1824 2688 2061 2522 2208 2291 
C 2291 2157 2291 2138 2291 2023 
L 2291 755 
z
" transform="scale(0.015625)"/>
       <path id="CMR17-65" d="M 2438 1472 
C 2464 1498 2464 1511 2464 1576 
C 2464 2238 2118 2816 1389 2816 
C 710 2816 173 2169 173 1383 
C 173 551 781 -64 1459 -64 
C 2176 -64 2458 607 2458 740 
C 2458 784 2419 784 2406 784 
C 2362 784 2355 771 2330 696 
C 2189 265 1837 51 1504 51 
C 1229 51 954 203 781 480 
C 582 803 582 1176 582 1472 
L 2438 1472 
z
M 589 1568 
C 634 2505 1126 2714 1382 2714 
C 1818 2714 2112 2297 2118 1568 
L 589 1568 
z
" transform="scale(0.015625)"/>
       <path id="CMR17-70" d="M 1408 -1063 
C 998 -1063 973 -1037 973 -789 
L 973 402 
C 1158 134 1427 -38 1766 -38 
C 2406 -38 3053 523 3053 1388 
C 3053 2191 2496 2802 1837 2802 
C 1453 2802 1139 2592 960 2338 
L 960 2802 
L 198 2732 
L 198 2567 
C 576 2567 634 2528 634 2223 
L 634 -789 
C 634 -1031 608 -1063 198 -1063 
L 198 -1228 
C 352 -1216 634 -1216 800 -1216 
C 966 -1216 1254 -1216 1408 -1228 
L 1408 -1063 
z
M 973 2012 
C 973 2102 973 2235 1222 2471 
C 1254 2497 1472 2688 1792 2688 
C 2259 2688 2643 2108 2643 1382 
C 2643 656 2234 64 1728 64 
C 1498 64 1248 172 1056 472 
C 973 612 973 650 973 752 
L 973 2012 
z
" transform="scale(0.015625)"/>
       <path id="CMR17-68" d="M 2656 1933 
C 2656 2259 2592 2790 1837 2790 
C 1312 2790 1056 2368 979 2157 
L 973 2157 
L 973 4396 
L 211 4326 
L 211 4160 
C 589 4160 646 4122 646 3817 
L 646 426 
C 646 184 621 153 211 153 
L 211 -13 
C 365 0 646 0 813 0 
C 979 0 1267 0 1421 -13 
L 1421 153 
C 1011 153 986 178 986 428 
L 986 1658 
C 986 2247 1344 2688 1792 2688 
C 2266 2688 2317 2266 2317 1958 
L 2317 428 
C 2317 184 2291 153 1882 153 
L 1882 -13 
C 2035 0 2317 0 2483 0 
C 2650 0 2938 0 3091 -13 
L 3091 153 
C 2682 153 2656 178 2656 428 
L 2656 1933 
z
" transform="scale(0.015625)"/>
       <path id="CMR17-3d" d="M 4115 2017 
C 4211 2017 4307 2017 4307 2125 
C 4307 2240 4198 2240 4090 2240 
L 512 2240 
C 403 2240 294 2240 294 2125 
C 294 2017 390 2017 486 2017 
L 4115 2017 
z
M 4090 896 
C 4198 896 4307 896 4307 1011 
C 4307 1119 4211 1119 4115 1119 
L 486 1119 
C 390 1119 294 1119 294 1011 
C 294 896 403 896 512 896 
L 4090 896 
z
" transform="scale(0.015625)"/>
      </defs>
      <use xlink:href="#CMR17-64" transform="scale(0.996264)"/>
      <use xlink:href="#CMR17-65" transform="translate(50.89537 0) scale(0.996264)"/>
      <use xlink:href="#CMR17-70" transform="translate(91.38103 0) scale(0.996264)"/>
      <use xlink:href="#CMR17-74" transform="translate(142.2764 0) scale(0.996264)"/>
      <use xlink:href="#CMR17-68" transform="translate(177.557168 0) scale(0.996264)"/>
      <use xlink:href="#CMR17-3d" transform="translate(228.452538 0) scale(0.996264)"/>
      <use xlink:href="#CMR17-32" transform="translate(300.167326 0) scale(0.996264)"/>
     </g>
    </g>
    <g id="line2d_16">
     <path d="M 603.112191 59.686624 
L 616.112191 59.686624 
L 629.112191 59.686624 
" style="fill: none; stroke: #ff0000; stroke-width: 2; stroke-linecap: square"/>
    </g>
    <g id="text_17">
     <!-- depth=5 -->
     <g transform="translate(639.512191 64.236624) scale(0.13 -0.13)">
      <defs>
       <path id="CMR17-35" d="M 730 3692 
C 794 3666 1056 3584 1325 3584 
C 1920 3584 2246 3911 2432 4100 
C 2432 4157 2432 4192 2394 4192 
C 2387 4192 2374 4192 2323 4163 
C 2099 4058 1837 3973 1517 3973 
C 1325 3973 1037 3999 723 4139 
C 653 4171 640 4171 634 4171 
C 602 4171 595 4164 595 4037 
L 595 2203 
C 595 2089 595 2057 659 2057 
C 691 2057 704 2070 736 2114 
C 941 2401 1222 2522 1542 2522 
C 1766 2522 2246 2382 2246 1289 
C 2246 1085 2246 715 2054 421 
C 1894 159 1645 25 1370 25 
C 947 25 518 320 403 814 
C 429 807 480 795 506 795 
C 589 795 749 840 749 1038 
C 749 1210 627 1280 506 1280 
C 358 1280 262 1190 262 1011 
C 262 454 704 -128 1382 -128 
C 2042 -128 2669 440 2669 1264 
C 2669 2030 2170 2624 1549 2624 
C 1222 2624 947 2503 730 2274 
L 730 3692 
z
" transform="scale(0.015625)"/>
      </defs>
      <use xlink:href="#CMR17-64" transform="scale(0.996264)"/>
      <use xlink:href="#CMR17-65" transform="translate(50.89537 0) scale(0.996264)"/>
      <use xlink:href="#CMR17-70" transform="translate(91.38103 0) scale(0.996264)"/>
      <use xlink:href="#CMR17-74" transform="translate(142.2764 0) scale(0.996264)"/>
      <use xlink:href="#CMR17-68" transform="translate(177.557168 0) scale(0.996264)"/>
      <use xlink:href="#CMR17-3d" transform="translate(228.452538 0) scale(0.996264)"/>
      <use xlink:href="#CMR17-35" transform="translate(300.167326 0) scale(0.996264)"/>
     </g>
    </g>
   </g>
  </g>
 </g>
 <defs>
  <clipPath id="pef55eada9d">
   <rect x="46.12645" y="7.2" width="652.99355" height="513.89532"/>
  </clipPath>
 </defs>
</svg>
