<?xml version="1.0" encoding="utf-8" standalone="no"?>
<!DOCTYPE svg PUBLIC "-//W3C//DTD SVG 1.1//EN"
  "http://www.w3.org/Graphics/SVG/1.1/DTD/svg11.dtd">
<svg xmlns:xlink="http://www.w3.org/1999/xlink" width="712.470312pt" height="567.99625pt" viewBox="0 0 712.470312 567.99625" xmlns="http://www.w3.org/2000/svg" version="1.1">
 <metadata>
  <rdf:RDF xmlns:dc="http://purl.org/dc/elements/1.1/" xmlns:cc="http://creativecommons.org/ns#" xmlns:rdf="http://www.w3.org/1999/02/22-rdf-syntax-ns#">
   <cc:Work>
    <dc:type rdf:resource="http://purl.org/dc/dcmitype/StillImage"/>
    <dc:date>2025-01-06T09:14:57.209784</dc:date>
    <dc:format>image/svg+xml</dc:format>
    <dc:creator>
     <cc:Agent>
      <dc:title>Matplotlib v3.10.0, https://matplotlib.org/</dc:title>
     </cc:Agent>
    </dc:creator>
   </cc:Work>
  </rdf:RDF>
 </metadata>
 <defs>
  <style type="text/css">*{stroke-linejoin: round; stroke-linecap: butt}</style>
 </defs>
 <g id="figure_1">
  <g id="patch_1">
   <path d="M 0 567.99625 
L 712.470312 567.99625 
L 712.470312 0 
L 0 0 
z
" style="fill: #ffffff"/>
  </g>
  <g id="axes_1">
   <g id="patch_2">
    <path d="M 42.620313 530.44 
L 705.270312 530.44 
L 705.270312 7.2 
L 42.620313 7.2 
z
" style="fill: #ffffff"/>
   </g>
   <g id="PathCollection_1">
    <defs>
     <path id="m1d33224726" d="M 0 1.581139 
C 0.419323 1.581139 0.821528 1.41454 1.118034 1.118034 
C 1.41454 0.821528 1.581139 0.419323 1.581139 0 
C 1.581139 -0.419323 1.41454 -0.821528 1.118034 -1.118034 
C 0.821528 -1.41454 0.419323 -1.581139 0 -1.581139 
C -0.419323 -1.581139 -0.821528 -1.41454 -1.118034 -1.118034 
C -1.41454 -0.821528 -1.581139 -0.419323 -1.581139 0 
C -1.581139 0.419323 -1.41454 0.821528 -1.118034 1.118034 
C -0.821528 1.41454 -0.419323 1.581139 0 1.581139 
z
" style="stroke: #000000"/>
    </defs>
    <g clip-path="url(#p2a0a08cba0)">
     <use xlink:href="#m1d33224726" x="72.740767" y="391.351558" style="stroke: #000000"/>
     <use xlink:href="#m1d33224726" x="76.783781" y="368.224194" style="stroke: #000000"/>
     <use xlink:href="#m1d33224726" x="80.826795" y="359.208979" style="stroke: #000000"/>
     <use xlink:href="#m1d33224726" x="84.869809" y="350.075009" style="stroke: #000000"/>
     <use xlink:href="#m1d33224726" x="88.912823" y="348.969682" style="stroke: #000000"/>
     <use xlink:href="#m1d33224726" x="92.955837" y="323.698597" style="stroke: #000000"/>
     <use xlink:href="#m1d33224726" x="96.998851" y="329.412323" style="stroke: #000000"/>
     <use xlink:href="#m1d33224726" x="113.170907" y="297.435592" style="stroke: #000000"/>
     <use xlink:href="#m1d33224726" x="117.213921" y="276.367182" style="stroke: #000000"/>
     <use xlink:href="#m1d33224726" x="121.256935" y="280.155539" style="stroke: #000000"/>
     <use xlink:href="#m1d33224726" x="129.342964" y="259.403375" style="stroke: #000000"/>
     <use xlink:href="#m1d33224726" x="133.385978" y="251.312168" style="stroke: #000000"/>
     <use xlink:href="#m1d33224726" x="137.428992" y="245.905952" style="stroke: #000000"/>
     <use xlink:href="#m1d33224726" x="141.472006" y="243.842105" style="stroke: #000000"/>
     <use xlink:href="#m1d33224726" x="145.51502" y="246.315077" style="stroke: #000000"/>
     <use xlink:href="#m1d33224726" x="149.558034" y="234.070443" style="stroke: #000000"/>
     <use xlink:href="#m1d33224726" x="153.601048" y="239.762519" style="stroke: #000000"/>
     <use xlink:href="#m1d33224726" x="157.644062" y="223.899038" style="stroke: #000000"/>
     <use xlink:href="#m1d33224726" x="165.73009" y="217.317445" style="stroke: #000000"/>
     <use xlink:href="#m1d33224726" x="173.816118" y="207.083885" style="stroke: #000000"/>
     <use xlink:href="#m1d33224726" x="177.859132" y="207.017159" style="stroke: #000000"/>
     <use xlink:href="#m1d33224726" x="181.902146" y="218.852429" style="stroke: #000000"/>
     <use xlink:href="#m1d33224726" x="185.94516" y="213.715734" style="stroke: #000000"/>
     <use xlink:href="#m1d33224726" x="189.988174" y="201.196359" style="stroke: #000000"/>
     <use xlink:href="#m1d33224726" x="194.031188" y="203.85219" style="stroke: #000000"/>
     <use xlink:href="#m1d33224726" x="198.074202" y="205.874531" style="stroke: #000000"/>
     <use xlink:href="#m1d33224726" x="206.16023" y="135.057801" style="stroke: #000000"/>
     <use xlink:href="#m1d33224726" x="210.203244" y="194.915567" style="stroke: #000000"/>
     <use xlink:href="#m1d33224726" x="218.289272" y="196.962517" style="stroke: #000000"/>
     <use xlink:href="#m1d33224726" x="226.3753" y="208.077696" style="stroke: #000000"/>
     <use xlink:href="#m1d33224726" x="230.418314" y="196.878946" style="stroke: #000000"/>
     <use xlink:href="#m1d33224726" x="234.461328" y="197.420928" style="stroke: #000000"/>
     <use xlink:href="#m1d33224726" x="238.504342" y="206.295502" style="stroke: #000000"/>
     <use xlink:href="#m1d33224726" x="242.547356" y="200.564116" style="stroke: #000000"/>
     <use xlink:href="#m1d33224726" x="246.59037" y="207.819421" style="stroke: #000000"/>
     <use xlink:href="#m1d33224726" x="254.676399" y="207.391496" style="stroke: #000000"/>
     <use xlink:href="#m1d33224726" x="258.719413" y="456.192928" style="stroke: #000000"/>
     <use xlink:href="#m1d33224726" x="270.848455" y="212.362771" style="stroke: #000000"/>
     <use xlink:href="#m1d33224726" x="274.891469" y="216.542779" style="stroke: #000000"/>
     <use xlink:href="#m1d33224726" x="278.934483" y="238.876515" style="stroke: #000000"/>
     <use xlink:href="#m1d33224726" x="282.977497" y="222.802487" style="stroke: #000000"/>
     <use xlink:href="#m1d33224726" x="287.020511" y="227.61638" style="stroke: #000000"/>
     <use xlink:href="#m1d33224726" x="295.106539" y="238.784486" style="stroke: #000000"/>
     <use xlink:href="#m1d33224726" x="299.149553" y="235.773249" style="stroke: #000000"/>
     <use xlink:href="#m1d33224726" x="303.192567" y="238.633615" style="stroke: #000000"/>
     <use xlink:href="#m1d33224726" x="307.235581" y="242.493701" style="stroke: #000000"/>
     <use xlink:href="#m1d33224726" x="311.278595" y="247.032317" style="stroke: #000000"/>
     <use xlink:href="#m1d33224726" x="315.321609" y="263.043937" style="stroke: #000000"/>
     <use xlink:href="#m1d33224726" x="319.364623" y="55.416102" style="stroke: #000000"/>
     <use xlink:href="#m1d33224726" x="331.493665" y="266.793811" style="stroke: #000000"/>
     <use xlink:href="#m1d33224726" x="339.579693" y="278.551912" style="stroke: #000000"/>
     <use xlink:href="#m1d33224726" x="343.622707" y="30.983636" style="stroke: #000000"/>
     <use xlink:href="#m1d33224726" x="359.794763" y="314.943654" style="stroke: #000000"/>
     <use xlink:href="#m1d33224726" x="363.837777" y="398.394934" style="stroke: #000000"/>
     <use xlink:href="#m1d33224726" x="367.880791" y="300.910482" style="stroke: #000000"/>
     <use xlink:href="#m1d33224726" x="371.923805" y="306.935563" style="stroke: #000000"/>
     <use xlink:href="#m1d33224726" x="375.96682" y="315.11737" style="stroke: #000000"/>
     <use xlink:href="#m1d33224726" x="384.052848" y="337.283622" style="stroke: #000000"/>
     <use xlink:href="#m1d33224726" x="388.095862" y="338.566548" style="stroke: #000000"/>
     <use xlink:href="#m1d33224726" x="392.138876" y="337.05937" style="stroke: #000000"/>
     <use xlink:href="#m1d33224726" x="396.18189" y="346.333117" style="stroke: #000000"/>
     <use xlink:href="#m1d33224726" x="400.224904" y="348.835827" style="stroke: #000000"/>
     <use xlink:href="#m1d33224726" x="404.267918" y="351.197208" style="stroke: #000000"/>
     <use xlink:href="#m1d33224726" x="408.310932" y="392.54364" style="stroke: #000000"/>
     <use xlink:href="#m1d33224726" x="412.353946" y="369.721778" style="stroke: #000000"/>
     <use xlink:href="#m1d33224726" x="416.39696" y="374.35133" style="stroke: #000000"/>
     <use xlink:href="#m1d33224726" x="424.482988" y="381.056107" style="stroke: #000000"/>
     <use xlink:href="#m1d33224726" x="428.526002" y="391.057927" style="stroke: #000000"/>
     <use xlink:href="#m1d33224726" x="432.569016" y="280.226307" style="stroke: #000000"/>
     <use xlink:href="#m1d33224726" x="436.61203" y="396.160759" style="stroke: #000000"/>
     <use xlink:href="#m1d33224726" x="440.655044" y="404.506774" style="stroke: #000000"/>
     <use xlink:href="#m1d33224726" x="444.698058" y="411.398703" style="stroke: #000000"/>
     <use xlink:href="#m1d33224726" x="452.784086" y="419.657822" style="stroke: #000000"/>
     <use xlink:href="#m1d33224726" x="456.8271" y="434.220754" style="stroke: #000000"/>
     <use xlink:href="#m1d33224726" x="460.870114" y="421.853698" style="stroke: #000000"/>
     <use xlink:href="#m1d33224726" x="464.913128" y="427.194255" style="stroke: #000000"/>
     <use xlink:href="#m1d33224726" x="472.999156" y="430.624885" style="stroke: #000000"/>
     <use xlink:href="#m1d33224726" x="477.04217" y="449.69853" style="stroke: #000000"/>
     <use xlink:href="#m1d33224726" x="497.257241" y="465.774162" style="stroke: #000000"/>
     <use xlink:href="#m1d33224726" x="505.343269" y="307.81307" style="stroke: #000000"/>
     <use xlink:href="#m1d33224726" x="509.386283" y="290.685338" style="stroke: #000000"/>
     <use xlink:href="#m1d33224726" x="513.429297" y="464.19176" style="stroke: #000000"/>
     <use xlink:href="#m1d33224726" x="517.472311" y="471.490225" style="stroke: #000000"/>
     <use xlink:href="#m1d33224726" x="521.515325" y="482.234478" style="stroke: #000000"/>
     <use xlink:href="#m1d33224726" x="533.644367" y="479.662758" style="stroke: #000000"/>
     <use xlink:href="#m1d33224726" x="537.687381" y="490.048134" style="stroke: #000000"/>
     <use xlink:href="#m1d33224726" x="545.773409" y="497.620183" style="stroke: #000000"/>
     <use xlink:href="#m1d33224726" x="549.816423" y="498.737228" style="stroke: #000000"/>
     <use xlink:href="#m1d33224726" x="553.859437" y="495.439108" style="stroke: #000000"/>
     <use xlink:href="#m1d33224726" x="557.902451" y="492.681387" style="stroke: #000000"/>
     <use xlink:href="#m1d33224726" x="561.945465" y="272.913134" style="stroke: #000000"/>
     <use xlink:href="#m1d33224726" x="570.031493" y="505.874791" style="stroke: #000000"/>
     <use xlink:href="#m1d33224726" x="574.074507" y="506.656364" style="stroke: #000000"/>
     <use xlink:href="#m1d33224726" x="590.246563" y="321.993053" style="stroke: #000000"/>
     <use xlink:href="#m1d33224726" x="594.289577" y="498.40506" style="stroke: #000000"/>
     <use xlink:href="#m1d33224726" x="602.375605" y="499.735304" style="stroke: #000000"/>
     <use xlink:href="#m1d33224726" x="606.418619" y="428.696124" style="stroke: #000000"/>
     <use xlink:href="#m1d33224726" x="610.461633" y="497.614519" style="stroke: #000000"/>
     <use xlink:href="#m1d33224726" x="614.504647" y="477.266853" style="stroke: #000000"/>
     <use xlink:href="#m1d33224726" x="618.547661" y="481.57423" style="stroke: #000000"/>
     <use xlink:href="#m1d33224726" x="622.590676" y="481.432202" style="stroke: #000000"/>
     <use xlink:href="#m1d33224726" x="626.63369" y="479.472146" style="stroke: #000000"/>
     <use xlink:href="#m1d33224726" x="630.676704" y="478.780264" style="stroke: #000000"/>
     <use xlink:href="#m1d33224726" x="634.719718" y="372.842213" style="stroke: #000000"/>
     <use xlink:href="#m1d33224726" x="638.762732" y="466.207955" style="stroke: #000000"/>
     <use xlink:href="#m1d33224726" x="642.805746" y="461.16926" style="stroke: #000000"/>
     <use xlink:href="#m1d33224726" x="646.84876" y="456.993775" style="stroke: #000000"/>
     <use xlink:href="#m1d33224726" x="650.891774" y="460.079561" style="stroke: #000000"/>
     <use xlink:href="#m1d33224726" x="654.934788" y="450.296633" style="stroke: #000000"/>
     <use xlink:href="#m1d33224726" x="658.977802" y="437.533589" style="stroke: #000000"/>
     <use xlink:href="#m1d33224726" x="663.020816" y="441.310954" style="stroke: #000000"/>
     <use xlink:href="#m1d33224726" x="667.06383" y="428.551355" style="stroke: #000000"/>
     <use xlink:href="#m1d33224726" x="671.106844" y="421.184484" style="stroke: #000000"/>
     <use xlink:href="#m1d33224726" x="675.149858" y="414.241189" style="stroke: #000000"/>
    </g>
   </g>
   <g id="matplotlib.axis_1">
    <g id="xtick_1">
     <g id="line2d_1">
      <defs>
       <path id="mface588872" d="M 0 0 
L 0 3.5 
" style="stroke: #000000; stroke-width: 0.8"/>
      </defs>
      <g>
       <use xlink:href="#mface588872" x="72.740767" y="530.44" style="stroke: #000000; stroke-width: 0.8"/>
      </g>
     </g>
     <g id="text_1">
      <!-- −4 -->
      <g transform="translate(65.369673 545.038437) scale(0.1 -0.1)">
       <defs>
        <path id="DejaVuSans-2212" d="M 678 2272 
L 4684 2272 
L 4684 1741 
L 678 1741 
L 678 2272 
z
" transform="scale(0.015625)"/>
        <path id="DejaVuSans-34" d="M 2419 4116 
L 825 1625 
L 2419 1625 
L 2419 4116 
z
M 2253 4666 
L 3047 4666 
L 3047 1625 
L 3713 1625 
L 3713 1100 
L 3047 1100 
L 3047 0 
L 2419 0 
L 2419 1100 
L 313 1100 
L 313 1709 
L 2253 4666 
z
" transform="scale(0.015625)"/>
       </defs>
       <use xlink:href="#DejaVuSans-2212"/>
       <use xlink:href="#DejaVuSans-34" transform="translate(83.789062 0)"/>
      </g>
     </g>
    </g>
    <g id="xtick_2">
     <g id="line2d_2">
      <g>
       <use xlink:href="#mface588872" x="158.799209" y="530.44" style="stroke: #000000; stroke-width: 0.8"/>
      </g>
     </g>
     <g id="text_2">
      <!-- −3 -->
      <g transform="translate(151.428115 545.038437) scale(0.1 -0.1)">
       <defs>
        <path id="DejaVuSans-33" d="M 2597 2516 
Q 3050 2419 3304 2112 
Q 3559 1806 3559 1356 
Q 3559 666 3084 287 
Q 2609 -91 1734 -91 
Q 1441 -91 1130 -33 
Q 819 25 488 141 
L 488 750 
Q 750 597 1062 519 
Q 1375 441 1716 441 
Q 2309 441 2620 675 
Q 2931 909 2931 1356 
Q 2931 1769 2642 2001 
Q 2353 2234 1838 2234 
L 1294 2234 
L 1294 2753 
L 1863 2753 
Q 2328 2753 2575 2939 
Q 2822 3125 2822 3475 
Q 2822 3834 2567 4026 
Q 2313 4219 1838 4219 
Q 1578 4219 1281 4162 
Q 984 4106 628 3988 
L 628 4550 
Q 988 4650 1302 4700 
Q 1616 4750 1894 4750 
Q 2613 4750 3031 4423 
Q 3450 4097 3450 3541 
Q 3450 3153 3228 2886 
Q 3006 2619 2597 2516 
z
" transform="scale(0.015625)"/>
       </defs>
       <use xlink:href="#DejaVuSans-2212"/>
       <use xlink:href="#DejaVuSans-33" transform="translate(83.789062 0)"/>
      </g>
     </g>
    </g>
    <g id="xtick_3">
     <g id="line2d_3">
      <g>
       <use xlink:href="#mface588872" x="244.85765" y="530.44" style="stroke: #000000; stroke-width: 0.8"/>
      </g>
     </g>
     <g id="text_3">
      <!-- −2 -->
      <g transform="translate(237.486556 545.038437) scale(0.1 -0.1)">
       <defs>
        <path id="DejaVuSans-32" d="M 1228 531 
L 3431 531 
L 3431 0 
L 469 0 
L 469 531 
Q 828 903 1448 1529 
Q 2069 2156 2228 2338 
Q 2531 2678 2651 2914 
Q 2772 3150 2772 3378 
Q 2772 3750 2511 3984 
Q 2250 4219 1831 4219 
Q 1534 4219 1204 4116 
Q 875 4013 500 3803 
L 500 4441 
Q 881 4594 1212 4672 
Q 1544 4750 1819 4750 
Q 2544 4750 2975 4387 
Q 3406 4025 3406 3419 
Q 3406 3131 3298 2873 
Q 3191 2616 2906 2266 
Q 2828 2175 2409 1742 
Q 1991 1309 1228 531 
z
" transform="scale(0.015625)"/>
       </defs>
       <use xlink:href="#DejaVuSans-2212"/>
       <use xlink:href="#DejaVuSans-32" transform="translate(83.789062 0)"/>
      </g>
     </g>
    </g>
    <g id="xtick_4">
     <g id="line2d_4">
      <g>
       <use xlink:href="#mface588872" x="330.916092" y="530.44" style="stroke: #000000; stroke-width: 0.8"/>
      </g>
     </g>
     <g id="text_4">
      <!-- −1 -->
      <g transform="translate(323.544998 545.038437) scale(0.1 -0.1)">
       <defs>
        <path id="DejaVuSans-31" d="M 794 531 
L 1825 531 
L 1825 4091 
L 703 3866 
L 703 4441 
L 1819 4666 
L 2450 4666 
L 2450 531 
L 3481 531 
L 3481 0 
L 794 0 
L 794 531 
z
" transform="scale(0.015625)"/>
       </defs>
       <use xlink:href="#DejaVuSans-2212"/>
       <use xlink:href="#DejaVuSans-31" transform="translate(83.789062 0)"/>
      </g>
     </g>
    </g>
    <g id="xtick_5">
     <g id="line2d_5">
      <g>
       <use xlink:href="#mface588872" x="416.974533" y="530.44" style="stroke: #000000; stroke-width: 0.8"/>
      </g>
     </g>
     <g id="text_5">
      <!-- 0 -->
      <g transform="translate(413.793283 545.038437) scale(0.1 -0.1)">
       <defs>
        <path id="DejaVuSans-30" d="M 2034 4250 
Q 1547 4250 1301 3770 
Q 1056 3291 1056 2328 
Q 1056 1369 1301 889 
Q 1547 409 2034 409 
Q 2525 409 2770 889 
Q 3016 1369 3016 2328 
Q 3016 3291 2770 3770 
Q 2525 4250 2034 4250 
z
M 2034 4750 
Q 2819 4750 3233 4129 
Q 3647 3509 3647 2328 
Q 3647 1150 3233 529 
Q 2819 -91 2034 -91 
Q 1250 -91 836 529 
Q 422 1150 422 2328 
Q 422 3509 836 4129 
Q 1250 4750 2034 4750 
z
" transform="scale(0.015625)"/>
       </defs>
       <use xlink:href="#DejaVuSans-30"/>
      </g>
     </g>
    </g>
    <g id="xtick_6">
     <g id="line2d_6">
      <g>
       <use xlink:href="#mface588872" x="503.032975" y="530.44" style="stroke: #000000; stroke-width: 0.8"/>
      </g>
     </g>
     <g id="text_6">
      <!-- 1 -->
      <g transform="translate(499.851725 545.038437) scale(0.1 -0.1)">
       <use xlink:href="#DejaVuSans-31"/>
      </g>
     </g>
    </g>
    <g id="xtick_7">
     <g id="line2d_7">
      <g>
       <use xlink:href="#mface588872" x="589.091416" y="530.44" style="stroke: #000000; stroke-width: 0.8"/>
      </g>
     </g>
     <g id="text_7">
      <!-- 2 -->
      <g transform="translate(585.910166 545.038437) scale(0.1 -0.1)">
       <use xlink:href="#DejaVuSans-32"/>
      </g>
     </g>
    </g>
    <g id="xtick_8">
     <g id="line2d_8">
      <g>
       <use xlink:href="#mface588872" x="675.149858" y="530.44" style="stroke: #000000; stroke-width: 0.8"/>
      </g>
     </g>
     <g id="text_8">
      <!-- 3 -->
      <g transform="translate(671.968608 545.038437) scale(0.1 -0.1)">
       <use xlink:href="#DejaVuSans-33"/>
      </g>
     </g>
    </g>
    <g id="text_9">
     <!-- x -->
     <g transform="translate(370.985937 558.716562) scale(0.1 -0.1)">
      <defs>
       <path id="DejaVuSans-78" d="M 3513 3500 
L 2247 1797 
L 3578 0 
L 2900 0 
L 1881 1375 
L 863 0 
L 184 0 
L 1544 1831 
L 300 3500 
L 978 3500 
L 1906 2253 
L 2834 3500 
L 3513 3500 
z
" transform="scale(0.015625)"/>
      </defs>
      <use xlink:href="#DejaVuSans-78"/>
     </g>
    </g>
   </g>
   <g id="matplotlib.axis_2">
    <g id="ytick_1">
     <g id="line2d_9">
      <defs>
       <path id="m69125f4da4" d="M 0 0 
L -3.5 0 
" style="stroke: #000000; stroke-width: 0.8"/>
      </defs>
      <g>
       <use xlink:href="#m69125f4da4" x="42.620313" y="428.784581" style="stroke: #000000; stroke-width: 0.8"/>
      </g>
     </g>
     <g id="text_10">
      <!-- −2 -->
      <g transform="translate(20.878125 432.5838) scale(0.1 -0.1)">
       <use xlink:href="#DejaVuSans-2212"/>
       <use xlink:href="#DejaVuSans-32" transform="translate(83.789062 0)"/>
      </g>
     </g>
    </g>
    <g id="ytick_2">
     <g id="line2d_10">
      <g>
       <use xlink:href="#m69125f4da4" x="42.620313" y="320.749155" style="stroke: #000000; stroke-width: 0.8"/>
      </g>
     </g>
     <g id="text_11">
      <!-- 0 -->
      <g transform="translate(29.257813 324.548374) scale(0.1 -0.1)">
       <use xlink:href="#DejaVuSans-30"/>
      </g>
     </g>
    </g>
    <g id="ytick_3">
     <g id="line2d_11">
      <g>
       <use xlink:href="#m69125f4da4" x="42.620313" y="212.71373" style="stroke: #000000; stroke-width: 0.8"/>
      </g>
     </g>
     <g id="text_12">
      <!-- 2 -->
      <g transform="translate(29.257813 216.512949) scale(0.1 -0.1)">
       <use xlink:href="#DejaVuSans-32"/>
      </g>
     </g>
    </g>
    <g id="ytick_4">
     <g id="line2d_12">
      <g>
       <use xlink:href="#m69125f4da4" x="42.620313" y="104.678304" style="stroke: #000000; stroke-width: 0.8"/>
      </g>
     </g>
     <g id="text_13">
      <!-- 4 -->
      <g transform="translate(29.257813 108.477523) scale(0.1 -0.1)">
       <use xlink:href="#DejaVuSans-34"/>
      </g>
     </g>
    </g>
    <g id="text_14">
     <!-- y -->
     <g transform="translate(14.798438 271.779375) rotate(-90) scale(0.1 -0.1)">
      <defs>
       <path id="DejaVuSans-79" d="M 2059 -325 
Q 1816 -950 1584 -1140 
Q 1353 -1331 966 -1331 
L 506 -1331 
L 506 -850 
L 844 -850 
Q 1081 -850 1212 -737 
Q 1344 -625 1503 -206 
L 1606 56 
L 191 3500 
L 800 3500 
L 1894 763 
L 2988 3500 
L 3597 3500 
L 2059 -325 
z
" transform="scale(0.015625)"/>
      </defs>
      <use xlink:href="#DejaVuSans-79"/>
     </g>
    </g>
   </g>
   <g id="line2d_13">
    <path d="M 72.740767 346.046992 
L 115.050436 346.046992 
L 117.065182 239.393063 
L 393.085401 239.393063 
L 395.100147 385.472 
L 509.940676 385.472 
L 511.955422 457.967584 
L 675.149858 457.967584 
L 675.149858 457.967584 
" clip-path="url(#p2a0a08cba0)" style="fill: none; stroke: #008000; stroke-width: 2; stroke-linecap: square"/>
   </g>
   <g id="line2d_14">
    <path d="M 72.740767 391.351558 
L 74.755513 391.351558 
L 76.770259 363.716587 
L 82.814498 363.716587 
L 84.829244 349.522346 
L 90.873482 349.522346 
L 92.888228 323.698597 
L 94.902974 323.698597 
L 96.917721 329.412323 
L 104.976705 329.412323 
L 106.991451 297.435592 
L 115.050436 297.435592 
L 117.065182 257.614485 
L 147.286374 257.614485 
L 149.30112 221.248409 
L 340.702001 221.248409 
L 342.716748 30.983636 
L 350.775732 30.983636 
L 352.790478 314.943654 
L 360.849463 314.943654 
L 362.864209 398.394934 
L 364.878955 398.394934 
L 366.893701 307.654471 
L 378.982178 307.654471 
L 380.996924 337.636513 
L 393.085401 337.636513 
L 395.100147 369.387117 
L 429.350831 369.387117 
L 431.365577 280.226307 
L 433.380323 280.226307 
L 435.395069 418.202206 
L 473.675246 418.202206 
L 475.689992 457.736346 
L 499.866945 457.736346 
L 501.881691 307.81307 
L 505.911184 307.81307 
L 507.92593 290.685338 
L 509.940676 290.685338 
L 511.955422 467.840993 
L 517.99966 467.840993 
L 520.014406 480.948618 
L 534.117629 480.948618 
L 536.132375 490.048134 
L 540.161868 490.048134 
L 542.176614 496.119477 
L 558.294583 496.119477 
L 560.309329 272.913134 
L 564.338821 272.913134 
L 566.353567 471.458409 
L 630.825443 471.458409 
L 632.840189 437.310088 
L 675.149858 437.310088 
L 675.149858 437.310088 
" clip-path="url(#p2a0a08cba0)" style="fill: none; stroke: #ff0000; stroke-width: 2; stroke-linecap: square"/>
   </g>
   <g id="patch_3">
    <path d="M 42.620313 530.44 
L 42.620313 7.2 
" style="fill: none; stroke: #000000; stroke-width: 0.8; stroke-linejoin: miter; stroke-linecap: square"/>
   </g>
   <g id="patch_4">
    <path d="M 705.270312 530.44 
L 705.270312 7.2 
" style="fill: none; stroke: #000000; stroke-width: 0.8; stroke-linejoin: miter; stroke-linecap: square"/>
   </g>
   <g id="patch_5">
    <path d="M 42.620313 530.44 
L 705.270313 530.44 
" style="fill: none; stroke: #000000; stroke-width: 0.8; stroke-linejoin: miter; stroke-linecap: square"/>
   </g>
   <g id="patch_6">
    <path d="M 42.620313 7.2 
L 705.270313 7.2 
" style="fill: none; stroke: #000000; stroke-width: 0.8; stroke-linejoin: miter; stroke-linecap: square"/>
   </g>
   <g id="legend_1">
    <g id="patch_7">
     <path d="M 622.420312 59.234375 
L 698.270312 59.234375 
Q 700.270312 59.234375 700.270312 57.234375 
L 700.270312 14.2 
Q 700.270312 12.2 698.270312 12.2 
L 622.420312 12.2 
Q 620.420312 12.2 620.420312 14.2 
L 620.420312 57.234375 
Q 620.420312 59.234375 622.420312 59.234375 
z
" style="fill: #ffffff; opacity: 0.8; stroke: #cccccc; stroke-linejoin: miter"/>
    </g>
    <g id="PathCollection_2">
     <g>
      <use xlink:href="#m1d33224726" x="634.420312" y="21.173437" style="stroke: #000000"/>
     </g>
    </g>
    <g id="text_15">
     <!-- Data -->
     <g transform="translate(652.420312 23.798437) scale(0.1 -0.1)">
      <defs>
       <path id="DejaVuSans-44" d="M 1259 4147 
L 1259 519 
L 2022 519 
Q 2988 519 3436 956 
Q 3884 1394 3884 2338 
Q 3884 3275 3436 3711 
Q 2988 4147 2022 4147 
L 1259 4147 
z
M 628 4666 
L 1925 4666 
Q 3281 4666 3915 4102 
Q 4550 3538 4550 2338 
Q 4550 1131 3912 565 
Q 3275 0 1925 0 
L 628 0 
L 628 4666 
z
" transform="scale(0.015625)"/>
       <path id="DejaVuSans-61" d="M 2194 1759 
Q 1497 1759 1228 1600 
Q 959 1441 959 1056 
Q 959 750 1161 570 
Q 1363 391 1709 391 
Q 2188 391 2477 730 
Q 2766 1069 2766 1631 
L 2766 1759 
L 2194 1759 
z
M 3341 1997 
L 3341 0 
L 2766 0 
L 2766 531 
Q 2569 213 2275 61 
Q 1981 -91 1556 -91 
Q 1019 -91 701 211 
Q 384 513 384 1019 
Q 384 1609 779 1909 
Q 1175 2209 1959 2209 
L 2766 2209 
L 2766 2266 
Q 2766 2663 2505 2880 
Q 2244 3097 1772 3097 
Q 1472 3097 1187 3025 
Q 903 2953 641 2809 
L 641 3341 
Q 956 3463 1253 3523 
Q 1550 3584 1831 3584 
Q 2591 3584 2966 3190 
Q 3341 2797 3341 1997 
z
" transform="scale(0.015625)"/>
       <path id="DejaVuSans-74" d="M 1172 4494 
L 1172 3500 
L 2356 3500 
L 2356 3053 
L 1172 3053 
L 1172 1153 
Q 1172 725 1289 603 
Q 1406 481 1766 481 
L 2356 481 
L 2356 0 
L 1766 0 
Q 1100 0 847 248 
Q 594 497 594 1153 
L 594 3053 
L 172 3053 
L 172 3500 
L 594 3500 
L 594 4494 
L 1172 4494 
z
" transform="scale(0.015625)"/>
      </defs>
      <use xlink:href="#DejaVuSans-44"/>
      <use xlink:href="#DejaVuSans-61" transform="translate(77.001953 0)"/>
      <use xlink:href="#DejaVuSans-74" transform="translate(138.28125 0)"/>
      <use xlink:href="#DejaVuSans-61" transform="translate(177.490234 0)"/>
     </g>
    </g>
    <g id="line2d_15">
     <path d="M 624.420312 34.976562 
L 634.420312 34.976562 
L 644.420312 34.976562 
" style="fill: none; stroke: #008000; stroke-width: 2; stroke-linecap: square"/>
    </g>
    <g id="text_16">
     <!-- depth=2 -->
     <g transform="translate(652.420312 38.476562) scale(0.1 -0.1)">
      <defs>
       <path id="DejaVuSans-64" d="M 2906 2969 
L 2906 4863 
L 3481 4863 
L 3481 0 
L 2906 0 
L 2906 525 
Q 2725 213 2448 61 
Q 2172 -91 1784 -91 
Q 1150 -91 751 415 
Q 353 922 353 1747 
Q 353 2572 751 3078 
Q 1150 3584 1784 3584 
Q 2172 3584 2448 3432 
Q 2725 3281 2906 2969 
z
M 947 1747 
Q 947 1113 1208 752 
Q 1469 391 1925 391 
Q 2381 391 2643 752 
Q 2906 1113 2906 1747 
Q 2906 2381 2643 2742 
Q 2381 3103 1925 3103 
Q 1469 3103 1208 2742 
Q 947 2381 947 1747 
z
" transform="scale(0.015625)"/>
       <path id="DejaVuSans-65" d="M 3597 1894 
L 3597 1613 
L 953 1613 
Q 991 1019 1311 708 
Q 1631 397 2203 397 
Q 2534 397 2845 478 
Q 3156 559 3463 722 
L 3463 178 
Q 3153 47 2828 -22 
Q 2503 -91 2169 -91 
Q 1331 -91 842 396 
Q 353 884 353 1716 
Q 353 2575 817 3079 
Q 1281 3584 2069 3584 
Q 2775 3584 3186 3129 
Q 3597 2675 3597 1894 
z
M 3022 2063 
Q 3016 2534 2758 2815 
Q 2500 3097 2075 3097 
Q 1594 3097 1305 2825 
Q 1016 2553 972 2059 
L 3022 2063 
z
" transform="scale(0.015625)"/>
       <path id="DejaVuSans-70" d="M 1159 525 
L 1159 -1331 
L 581 -1331 
L 581 3500 
L 1159 3500 
L 1159 2969 
Q 1341 3281 1617 3432 
Q 1894 3584 2278 3584 
Q 2916 3584 3314 3078 
Q 3713 2572 3713 1747 
Q 3713 922 3314 415 
Q 2916 -91 2278 -91 
Q 1894 -91 1617 61 
Q 1341 213 1159 525 
z
M 3116 1747 
Q 3116 2381 2855 2742 
Q 2594 3103 2138 3103 
Q 1681 3103 1420 2742 
Q 1159 2381 1159 1747 
Q 1159 1113 1420 752 
Q 1681 391 2138 391 
Q 2594 391 2855 752 
Q 3116 1113 3116 1747 
z
" transform="scale(0.015625)"/>
       <path id="DejaVuSans-68" d="M 3513 2113 
L 3513 0 
L 2938 0 
L 2938 2094 
Q 2938 2591 2744 2837 
Q 2550 3084 2163 3084 
Q 1697 3084 1428 2787 
Q 1159 2491 1159 1978 
L 1159 0 
L 581 0 
L 581 4863 
L 1159 4863 
L 1159 2956 
Q 1366 3272 1645 3428 
Q 1925 3584 2291 3584 
Q 2894 3584 3203 3211 
Q 3513 2838 3513 2113 
z
" transform="scale(0.015625)"/>
       <path id="DejaVuSans-3d" d="M 678 2906 
L 4684 2906 
L 4684 2381 
L 678 2381 
L 678 2906 
z
M 678 1631 
L 4684 1631 
L 4684 1100 
L 678 1100 
L 678 1631 
z
" transform="scale(0.015625)"/>
      </defs>
      <use xlink:href="#DejaVuSans-64"/>
      <use xlink:href="#DejaVuSans-65" transform="translate(63.476562 0)"/>
      <use xlink:href="#DejaVuSans-70" transform="translate(125 0)"/>
      <use xlink:href="#DejaVuSans-74" transform="translate(188.476562 0)"/>
      <use xlink:href="#DejaVuSans-68" transform="translate(227.685547 0)"/>
      <use xlink:href="#DejaVuSans-3d" transform="translate(291.064453 0)"/>
      <use xlink:href="#DejaVuSans-32" transform="translate(374.853516 0)"/>
     </g>
    </g>
    <g id="line2d_16">
     <path d="M 624.420312 49.654687 
L 634.420312 49.654687 
L 644.420312 49.654687 
" style="fill: none; stroke: #ff0000; stroke-width: 2; stroke-linecap: square"/>
    </g>
    <g id="text_17">
     <!-- depth=5 -->
     <g transform="translate(652.420312 53.154687) scale(0.1 -0.1)">
      <defs>
       <path id="DejaVuSans-35" d="M 691 4666 
L 3169 4666 
L 3169 4134 
L 1269 4134 
L 1269 2991 
Q 1406 3038 1543 3061 
Q 1681 3084 1819 3084 
Q 2600 3084 3056 2656 
Q 3513 2228 3513 1497 
Q 3513 744 3044 326 
Q 2575 -91 1722 -91 
Q 1428 -91 1123 -41 
Q 819 9 494 109 
L 494 744 
Q 775 591 1075 516 
Q 1375 441 1709 441 
Q 2250 441 2565 725 
Q 2881 1009 2881 1497 
Q 2881 1984 2565 2268 
Q 2250 2553 1709 2553 
Q 1456 2553 1204 2497 
Q 953 2441 691 2322 
L 691 4666 
z
" transform="scale(0.015625)"/>
      </defs>
      <use xlink:href="#DejaVuSans-64"/>
      <use xlink:href="#DejaVuSans-65" transform="translate(63.476562 0)"/>
      <use xlink:href="#DejaVuSans-70" transform="translate(125 0)"/>
      <use xlink:href="#DejaVuSans-74" transform="translate(188.476562 0)"/>
      <use xlink:href="#DejaVuSans-68" transform="translate(227.685547 0)"/>
      <use xlink:href="#DejaVuSans-3d" transform="translate(291.064453 0)"/>
      <use xlink:href="#DejaVuSans-35" transform="translate(374.853516 0)"/>
     </g>
    </g>
   </g>
  </g>
 </g>
 <defs>
  <clipPath id="p2a0a08cba0">
   <rect x="42.620313" y="7.2" width="662.65" height="523.24"/>
  </clipPath>
 </defs>
</svg>
