<?xml version="1.0" encoding="utf-8" standalone="no"?>
<!DOCTYPE svg PUBLIC "-//W3C//DTD SVG 1.1//EN"
  "http://www.w3.org/Graphics/SVG/1.1/DTD/svg11.dtd">
<svg xmlns:xlink="http://www.w3.org/1999/xlink" width="346.32pt" height="346.32pt" viewBox="0 0 346.32 346.32" xmlns="http://www.w3.org/2000/svg" version="1.1">
 <metadata>
  <rdf:RDF xmlns:dc="http://purl.org/dc/elements/1.1/" xmlns:cc="http://creativecommons.org/ns#" xmlns:rdf="http://www.w3.org/1999/02/22-rdf-syntax-ns#">
   <cc:Work>
    <dc:type rdf:resource="http://purl.org/dc/dcmitype/StillImage"/>
    <dc:date>2025-01-06T09:23:40.576199</dc:date>
    <dc:format>image/svg+xml</dc:format>
    <dc:creator>
     <cc:Agent>
      <dc:title>Matplotlib v3.10.0, https://matplotlib.org/</dc:title>
     </cc:Agent>
    </dc:creator>
   </cc:Work>
  </rdf:RDF>
 </metadata>
 <defs>
  <style type="text/css">*{stroke-linejoin: round; stroke-linecap: butt}</style>
 </defs>
 <g id="figure_1">
  <g id="patch_1">
   <path d="M 0 346.32 
L 346.32 346.32 
L 346.32 0 
L 0 0 
z
" style="fill: #ffffff"/>
  </g>
  <g id="axes_1">
   <g id="line2d_1">
    <path d="M 22.287273 110.9044 
L 168.565413 110.9044 
" clip-path="url(#p1d10b9d616)" style="fill: none; stroke: #ff0000; stroke-width: 1.5; stroke-linecap: square"/>
   </g>
   <g id="line2d_2">
    <path d="M 120.616473 144.994629 
L 168.565413 144.994629 
" clip-path="url(#p1d10b9d616)" style="fill: none; stroke: #ff0000; stroke-width: 1.5; stroke-linecap: square"/>
   </g>
   <g id="line2d_3">
    <path d="M 120.616473 144.994629 
L 168.565413 144.994629 
" clip-path="url(#p1d10b9d616)" style="fill: none; stroke: #ff0000; stroke-width: 1.5; stroke-linecap: square"/>
   </g>
   <g id="line2d_4">
    <path d="M 120.616473 144.994629 
L 168.565413 144.994629 
" clip-path="url(#p1d10b9d616)" style="fill: none; stroke: #ff0000; stroke-width: 1.5; stroke-linecap: square"/>
   </g>
   <g id="line2d_5">
    <path d="M 120.616473 144.994629 
L 168.565413 144.994629 
" clip-path="url(#p1d10b9d616)" style="fill: none; stroke: #ff0000; stroke-width: 1.5; stroke-linecap: square"/>
   </g>
   <g id="line2d_6">
    <path d="M 48.412278 76.814172 
L 168.565413 76.814172 
" clip-path="url(#p1d10b9d616)" style="fill: none; stroke: #ff0000; stroke-width: 1.5; stroke-linecap: square"/>
   </g>
   <g id="line2d_7">
    <path d="M 48.412278 76.814172 
L 168.565413 76.814172 
" clip-path="url(#p1d10b9d616)" style="fill: none; stroke: #ff0000; stroke-width: 1.5; stroke-linecap: square"/>
   </g>
   <g id="line2d_8">
    <path d="M 48.412278 76.814172 
L 168.565413 76.814172 
" clip-path="url(#p1d10b9d616)" style="fill: none; stroke: #ff0000; stroke-width: 1.5; stroke-linecap: square"/>
   </g>
   <g id="line2d_9">
    <path d="M 48.412278 76.814172 
L 168.565413 76.814172 
" clip-path="url(#p1d10b9d616)" style="fill: none; stroke: #ff0000; stroke-width: 1.5; stroke-linecap: square"/>
   </g>
   <g id="line2d_10">
    <path d="M 168.565413 133.901562 
L 324.032727 133.901562 
" clip-path="url(#p1d10b9d616)" style="fill: none; stroke: #ff0000; stroke-width: 1.5; stroke-linecap: square"/>
   </g>
   <g id="line2d_11">
    <path d="M 168.565413 302.856352 
L 324.032727 302.856352 
" clip-path="url(#p1d10b9d616)" style="fill: none; stroke: #ff0000; stroke-width: 1.5; stroke-linecap: square"/>
   </g>
   <g id="line2d_12">
    <path d="M 168.565413 302.856352 
L 324.032727 302.856352 
" clip-path="url(#p1d10b9d616)" style="fill: none; stroke: #ff0000; stroke-width: 1.5; stroke-linecap: square"/>
   </g>
   <g id="line2d_13">
    <path d="M 168.565413 302.856352 
L 324.032727 302.856352 
" clip-path="url(#p1d10b9d616)" style="fill: none; stroke: #ff0000; stroke-width: 1.5; stroke-linecap: square"/>
   </g>
   <g id="line2d_14">
    <path d="M 168.565413 302.856352 
L 324.032727 302.856352 
" clip-path="url(#p1d10b9d616)" style="fill: none; stroke: #ff0000; stroke-width: 1.5; stroke-linecap: square"/>
   </g>
   <g id="line2d_15">
    <path d="M 168.565413 133.901562 
L 254.653113 133.901562 
" clip-path="url(#p1d10b9d616)" style="fill: none; stroke: #ff0000; stroke-width: 1.5; stroke-linecap: square"/>
   </g>
   <g id="line2d_16">
    <path d="M 226.265338 133.901562 
L 254.653113 133.901562 
" clip-path="url(#p1d10b9d616)" style="fill: none; stroke: #ff0000; stroke-width: 1.5; stroke-linecap: square"/>
   </g>
   <g id="line2d_17">
    <path d="M 226.265338 133.901562 
L 254.653113 133.901562 
" clip-path="url(#p1d10b9d616)" style="fill: none; stroke: #ff0000; stroke-width: 1.5; stroke-linecap: square"/>
   </g>
   <g id="line2d_18">
    <path d="M 226.265338 133.901562 
L 254.653113 133.901562 
" clip-path="url(#p1d10b9d616)" style="fill: none; stroke: #ff0000; stroke-width: 1.5; stroke-linecap: square"/>
   </g>
   <g id="line2d_19">
    <path d="M 254.653113 51.771055 
L 324.032727 51.771055 
" clip-path="url(#p1d10b9d616)" style="fill: none; stroke: #ff0000; stroke-width: 1.5; stroke-linecap: square"/>
   </g>
   <g id="line2d_20">
    <path d="M 283.040887 51.771055 
L 324.032727 51.771055 
" clip-path="url(#p1d10b9d616)" style="fill: none; stroke: #ff0000; stroke-width: 1.5; stroke-linecap: square"/>
   </g>
   <g id="line2d_21">
    <path d="M 283.040887 51.771055 
L 324.032727 51.771055 
" clip-path="url(#p1d10b9d616)" style="fill: none; stroke: #ff0000; stroke-width: 1.5; stroke-linecap: square"/>
   </g>
   <g id="line2d_22">
    <path d="M 283.040887 51.771055 
L 324.032727 51.771055 
" clip-path="url(#p1d10b9d616)" style="fill: none; stroke: #ff0000; stroke-width: 1.5; stroke-linecap: square"/>
   </g>
   <g id="line2d_23">
    <path d="M 168.565413 324.032727 
L 168.565413 22.287273 
" clip-path="url(#p1d10b9d616)" style="fill: none; stroke: #000000; stroke-width: 1.5; stroke-linecap: square"/>
   </g>
   <g id="line2d_24">
    <path d="M 120.616473 324.032727 
L 120.616473 110.9044 
" clip-path="url(#p1d10b9d616)" style="fill: none; stroke: #000000; stroke-width: 1.5; stroke-linecap: square"/>
   </g>
   <g id="line2d_25">
    <path d="M 120.616473 144.994629 
L 120.616473 110.9044 
" clip-path="url(#p1d10b9d616)" style="fill: none; stroke: #000000; stroke-width: 1.5; stroke-linecap: square"/>
   </g>
   <g id="line2d_26">
    <path d="M 120.616473 144.994629 
L 120.616473 110.9044 
" clip-path="url(#p1d10b9d616)" style="fill: none; stroke: #000000; stroke-width: 1.5; stroke-linecap: square"/>
   </g>
   <g id="line2d_27">
    <path d="M 120.616473 144.994629 
L 120.616473 110.9044 
" clip-path="url(#p1d10b9d616)" style="fill: none; stroke: #000000; stroke-width: 1.5; stroke-linecap: square"/>
   </g>
   <g id="line2d_28">
    <path d="M 48.412278 110.9044 
L 48.412278 22.287273 
" clip-path="url(#p1d10b9d616)" style="fill: none; stroke: #000000; stroke-width: 1.5; stroke-linecap: square"/>
   </g>
   <g id="line2d_29">
    <path d="M 48.412278 76.814172 
L 48.412278 22.287273 
" clip-path="url(#p1d10b9d616)" style="fill: none; stroke: #000000; stroke-width: 1.5; stroke-linecap: square"/>
   </g>
   <g id="line2d_30">
    <path d="M 48.412278 76.814172 
L 48.412278 22.287273 
" clip-path="url(#p1d10b9d616)" style="fill: none; stroke: #000000; stroke-width: 1.5; stroke-linecap: square"/>
   </g>
   <g id="line2d_31">
    <path d="M 48.412278 76.814172 
L 48.412278 22.287273 
" clip-path="url(#p1d10b9d616)" style="fill: none; stroke: #000000; stroke-width: 1.5; stroke-linecap: square"/>
   </g>
   <g id="line2d_32">
    <path d="M 168.565413 324.032727 
L 168.565413 133.901562 
" clip-path="url(#p1d10b9d616)" style="fill: none; stroke: #000000; stroke-width: 1.5; stroke-linecap: square"/>
   </g>
   <g id="line2d_33">
    <path d="M 168.565413 302.856352 
L 168.565413 133.901562 
" clip-path="url(#p1d10b9d616)" style="fill: none; stroke: #000000; stroke-width: 1.5; stroke-linecap: square"/>
   </g>
   <g id="line2d_34">
    <path d="M 168.565413 302.856352 
L 168.565413 133.901562 
" clip-path="url(#p1d10b9d616)" style="fill: none; stroke: #000000; stroke-width: 1.5; stroke-linecap: square"/>
   </g>
   <g id="line2d_35">
    <path d="M 168.565413 302.856352 
L 168.565413 133.901562 
" clip-path="url(#p1d10b9d616)" style="fill: none; stroke: #000000; stroke-width: 1.5; stroke-linecap: square"/>
   </g>
   <g id="line2d_36">
    <path d="M 254.653113 133.901562 
L 254.653113 22.287273 
" clip-path="url(#p1d10b9d616)" style="fill: none; stroke: #000000; stroke-width: 1.5; stroke-linecap: square"/>
   </g>
   <g id="line2d_37">
    <path d="M 226.265338 133.901562 
L 226.265338 22.287273 
" clip-path="url(#p1d10b9d616)" style="fill: none; stroke: #000000; stroke-width: 1.5; stroke-linecap: square"/>
   </g>
   <g id="line2d_38">
    <path d="M 226.265338 133.901562 
L 226.265338 22.287273 
" clip-path="url(#p1d10b9d616)" style="fill: none; stroke: #000000; stroke-width: 1.5; stroke-linecap: square"/>
   </g>
   <g id="line2d_39">
    <path d="M 226.265338 133.901562 
L 226.265338 22.287273 
" clip-path="url(#p1d10b9d616)" style="fill: none; stroke: #000000; stroke-width: 1.5; stroke-linecap: square"/>
   </g>
   <g id="line2d_40">
    <path d="M 283.040887 51.771055 
L 283.040887 22.287273 
" clip-path="url(#p1d10b9d616)" style="fill: none; stroke: #000000; stroke-width: 1.5; stroke-linecap: square"/>
   </g>
   <g id="line2d_41">
    <path d="M 283.040887 51.771055 
L 283.040887 22.287273 
" clip-path="url(#p1d10b9d616)" style="fill: none; stroke: #000000; stroke-width: 1.5; stroke-linecap: square"/>
   </g>
   <g id="line2d_42">
    <path d="M 283.040887 51.771055 
L 283.040887 22.287273 
" clip-path="url(#p1d10b9d616)" style="fill: none; stroke: #000000; stroke-width: 1.5; stroke-linecap: square"/>
   </g>
   <g id="patch_2">
    <path d="M 82.636364 155.650348 
C 101.999899 155.650348 120.57296 147.957134 134.265047 134.265047 
C 147.957134 120.57296 155.650348 101.999899 155.650348 82.636364 
C 155.650348 63.272829 147.957134 44.699767 134.265047 31.00768 
C 120.57296 17.315593 101.999899 9.622379 82.636364 9.622379 
C 63.272829 9.622379 44.699767 17.315593 31.00768 31.00768 
C 17.315593 44.699767 9.622379 63.272829 9.622379 82.636364 
C 9.622379 101.999899 17.315593 120.57296 31.00768 134.265047 
C 44.699767 147.957134 63.272829 155.650348 82.636364 155.650348 
L 82.636364 155.650348 
z
" clip-path="url(#p1d10b9d616)" style="fill: none; stroke-dasharray: 3.7,1.6; stroke-dashoffset: 0; stroke: #800080; stroke-linejoin: miter"/>
   </g>
   <g id="line2d_43">
    <path d="M 82.636364 82.636364 
L 120.616473 144.994629 
" clip-path="url(#p1d10b9d616)" style="fill: none; stroke-dasharray: 1.5,2.475; stroke-dashoffset: 0; stroke: #800080; stroke-width: 1.5"/>
   </g>
   <g id="PathCollection_1">
    <defs>
     <path id="m37db6c607e" d="M 0 5 
C 1.326016 5 2.597899 4.473168 3.535534 3.535534 
C 4.473168 2.597899 5 1.326016 5 0 
C 5 -1.326016 4.473168 -2.597899 3.535534 -3.535534 
C 2.597899 -4.473168 1.326016 -5 0 -5 
C -1.326016 -5 -2.597899 -4.473168 -3.535534 -3.535534 
C -4.473168 -2.597899 -5 -1.326016 -5 0 
C -5 1.326016 -4.473168 2.597899 -3.535534 3.535534 
C -2.597899 4.473168 -1.326016 5 0 5 
z
" style="stroke: #000000"/>
    </defs>
    <g clip-path="url(#p1d10b9d616)">
     <use xlink:href="#m37db6c607e" x="283.040887" y="51.771055" style="stroke: #000000"/>
     <use xlink:href="#m37db6c607e" x="48.412278" y="76.814172" style="stroke: #000000"/>
     <use xlink:href="#m37db6c607e" x="120.616473" y="144.994629" style="stroke: #000000"/>
     <use xlink:href="#m37db6c607e" x="226.265338" y="133.901562" style="stroke: #000000"/>
     <use xlink:href="#m37db6c607e" x="168.565413" y="302.856352" style="stroke: #000000"/>
    </g>
   </g>
   <g id="PathCollection_2">
    <defs>
     <path id="me1acb5eec5" d="M 0 5 
C 1.326016 5 2.597899 4.473168 3.535534 3.535534 
C 4.473168 2.597899 5 1.326016 5 0 
C 5 -1.326016 4.473168 -2.597899 3.535534 -3.535534 
C 2.597899 -4.473168 1.326016 -5 0 -5 
C -1.326016 -5 -2.597899 -4.473168 -3.535534 -3.535534 
C -4.473168 -2.597899 -5 -1.326016 -5 0 
C -5 1.326016 -4.473168 2.597899 -3.535534 3.535534 
C -2.597899 4.473168 -1.326016 5 0 5 
z
" style="stroke: #800080"/>
    </defs>
    <g clip-path="url(#p1d10b9d616)">
     <use xlink:href="#me1acb5eec5" x="48.412278" y="76.814172" style="fill: #800080; stroke: #800080"/>
     <use xlink:href="#me1acb5eec5" x="120.616473" y="144.994629" style="fill: #800080; stroke: #800080"/>
    </g>
   </g>
   <g id="PathCollection_3">
    <defs>
     <path id="m06d6fa5a04" d="M 0 -7.071068 
L -1.587554 -2.18508 
L -6.724985 -2.18508 
L -2.568716 0.834626 
L -4.156269 5.720614 
L -0 2.700907 
L 4.156269 5.720614 
L 2.568716 0.834626 
L 6.724985 -2.18508 
L 1.587554 -2.18508 
z
" style="stroke: #000000; stroke-width: 0.5"/>
    </defs>
    <g clip-path="url(#p1d10b9d616)">
     <use xlink:href="#m06d6fa5a04" x="82.636364" y="82.636364" style="fill: #ff0000; stroke: #000000; stroke-width: 0.5"/>
    </g>
   </g>
  </g>
 </g>
 <defs>
  <clipPath id="p1d10b9d616">
   <rect x="7.2" y="7.2" width="331.92" height="331.92"/>
  </clipPath>
 </defs>
</svg>
