<?xml version="1.0" encoding="utf-8" standalone="no"?>
<!DOCTYPE svg PUBLIC "-//W3C//DTD SVG 1.1//EN"
  "http://www.w3.org/Graphics/SVG/1.1/DTD/svg11.dtd">
<svg xmlns:xlink="http://www.w3.org/1999/xlink" width="293.4pt" height="291.6pt" viewBox="0 0 293.4 291.6" xmlns="http://www.w3.org/2000/svg" version="1.1">
 <metadata>
  <rdf:RDF xmlns:dc="http://purl.org/dc/elements/1.1/" xmlns:cc="http://creativecommons.org/ns#" xmlns:rdf="http://www.w3.org/1999/02/22-rdf-syntax-ns#">
   <cc:Work>
    <dc:type rdf:resource="http://purl.org/dc/dcmitype/StillImage"/>
    <dc:date>2025-01-06T05:54:08.648657</dc:date>
    <dc:format>image/svg+xml</dc:format>
    <dc:creator>
     <cc:Agent>
      <dc:title>Matplotlib v3.10.0, https://matplotlib.org/</dc:title>
     </cc:Agent>
    </dc:creator>
   </cc:Work>
  </rdf:RDF>
 </metadata>
 <defs>
  <style type="text/css">*{stroke-linejoin: round; stroke-linecap: butt}</style>
 </defs>
 <g id="figure_1">
  <g id="patch_1">
   <path d="M 0 291.6 
L 293.4 291.6 
L 293.4 0 
L 0 0 
z
" style="fill: #ffffff"/>
  </g>
  <g id="axes_1">
   <g id="line2d_1">
    <path d="M 19.881818 93.807797 
L 142.837956 93.807797 
" clip-path="url(#p30205ee7ad)" style="fill: none; stroke: #ff0000; stroke-width: 1.5; stroke-linecap: square"/>
   </g>
   <g id="line2d_2">
    <path d="M 102.533803 122.277944 
L 142.837956 122.277944 
" clip-path="url(#p30205ee7ad)" style="fill: none; stroke: #ff0000; stroke-width: 1.5; stroke-linecap: square"/>
   </g>
   <g id="line2d_3">
    <path d="M 102.533803 122.277944 
L 142.837956 122.277944 
" clip-path="url(#p30205ee7ad)" style="fill: none; stroke: #ff0000; stroke-width: 1.5; stroke-linecap: square"/>
   </g>
   <g id="line2d_4">
    <path d="M 102.533803 122.277944 
L 142.837956 122.277944 
" clip-path="url(#p30205ee7ad)" style="fill: none; stroke: #ff0000; stroke-width: 1.5; stroke-linecap: square"/>
   </g>
   <g id="line2d_5">
    <path d="M 102.533803 122.277944 
L 142.837956 122.277944 
" clip-path="url(#p30205ee7ad)" style="fill: none; stroke: #ff0000; stroke-width: 1.5; stroke-linecap: square"/>
   </g>
   <g id="line2d_6">
    <path d="M 41.841557 65.337649 
L 142.837956 65.337649 
" clip-path="url(#p30205ee7ad)" style="fill: none; stroke: #ff0000; stroke-width: 1.5; stroke-linecap: square"/>
   </g>
   <g id="line2d_7">
    <path d="M 41.841557 65.337649 
L 142.837956 65.337649 
" clip-path="url(#p30205ee7ad)" style="fill: none; stroke: #ff0000; stroke-width: 1.5; stroke-linecap: square"/>
   </g>
   <g id="line2d_8">
    <path d="M 41.841557 65.337649 
L 142.837956 65.337649 
" clip-path="url(#p30205ee7ad)" style="fill: none; stroke: #ff0000; stroke-width: 1.5; stroke-linecap: square"/>
   </g>
   <g id="line2d_9">
    <path d="M 41.841557 65.337649 
L 142.837956 65.337649 
" clip-path="url(#p30205ee7ad)" style="fill: none; stroke: #ff0000; stroke-width: 1.5; stroke-linecap: square"/>
   </g>
   <g id="line2d_10">
    <path d="M 142.837956 113.013669 
L 273.518182 113.013669 
" clip-path="url(#p30205ee7ad)" style="fill: none; stroke: #ff0000; stroke-width: 1.5; stroke-linecap: square"/>
   </g>
   <g id="line2d_11">
    <path d="M 142.837956 254.114741 
L 273.518182 254.114741 
" clip-path="url(#p30205ee7ad)" style="fill: none; stroke: #ff0000; stroke-width: 1.5; stroke-linecap: square"/>
   </g>
   <g id="line2d_12">
    <path d="M 142.837956 254.114741 
L 273.518182 254.114741 
" clip-path="url(#p30205ee7ad)" style="fill: none; stroke: #ff0000; stroke-width: 1.5; stroke-linecap: square"/>
   </g>
   <g id="line2d_13">
    <path d="M 142.837956 254.114741 
L 273.518182 254.114741 
" clip-path="url(#p30205ee7ad)" style="fill: none; stroke: #ff0000; stroke-width: 1.5; stroke-linecap: square"/>
   </g>
   <g id="line2d_14">
    <path d="M 142.837956 254.114741 
L 273.518182 254.114741 
" clip-path="url(#p30205ee7ad)" style="fill: none; stroke: #ff0000; stroke-width: 1.5; stroke-linecap: square"/>
   </g>
   <g id="line2d_15">
    <path d="M 142.837956 113.013669 
L 215.200176 113.013669 
" clip-path="url(#p30205ee7ad)" style="fill: none; stroke: #ff0000; stroke-width: 1.5; stroke-linecap: square"/>
   </g>
   <g id="line2d_16">
    <path d="M 191.338435 113.013669 
L 215.200176 113.013669 
" clip-path="url(#p30205ee7ad)" style="fill: none; stroke: #ff0000; stroke-width: 1.5; stroke-linecap: square"/>
   </g>
   <g id="line2d_17">
    <path d="M 191.338435 113.013669 
L 215.200176 113.013669 
" clip-path="url(#p30205ee7ad)" style="fill: none; stroke: #ff0000; stroke-width: 1.5; stroke-linecap: square"/>
   </g>
   <g id="line2d_18">
    <path d="M 191.338435 113.013669 
L 215.200176 113.013669 
" clip-path="url(#p30205ee7ad)" style="fill: none; stroke: #ff0000; stroke-width: 1.5; stroke-linecap: square"/>
   </g>
   <g id="line2d_19">
    <path d="M 215.200176 44.423115 
L 273.518182 44.423115 
" clip-path="url(#p30205ee7ad)" style="fill: none; stroke: #ff0000; stroke-width: 1.5; stroke-linecap: square"/>
   </g>
   <g id="line2d_20">
    <path d="M 239.061917 44.423115 
L 273.518182 44.423115 
" clip-path="url(#p30205ee7ad)" style="fill: none; stroke: #ff0000; stroke-width: 1.5; stroke-linecap: square"/>
   </g>
   <g id="line2d_21">
    <path d="M 239.061917 44.423115 
L 273.518182 44.423115 
" clip-path="url(#p30205ee7ad)" style="fill: none; stroke: #ff0000; stroke-width: 1.5; stroke-linecap: square"/>
   </g>
   <g id="line2d_22">
    <path d="M 239.061917 44.423115 
L 273.518182 44.423115 
" clip-path="url(#p30205ee7ad)" style="fill: none; stroke: #ff0000; stroke-width: 1.5; stroke-linecap: square"/>
   </g>
   <g id="line2d_23">
    <path d="M 142.837956 271.8 
L 142.837956 19.8 
" clip-path="url(#p30205ee7ad)" style="fill: none; stroke: #000000; stroke-width: 1.5; stroke-linecap: square"/>
   </g>
   <g id="line2d_24">
    <path d="M 102.533803 271.8 
L 102.533803 93.807797 
" clip-path="url(#p30205ee7ad)" style="fill: none; stroke: #000000; stroke-width: 1.5; stroke-linecap: square"/>
   </g>
   <g id="line2d_25">
    <path d="M 102.533803 122.277944 
L 102.533803 93.807797 
" clip-path="url(#p30205ee7ad)" style="fill: none; stroke: #000000; stroke-width: 1.5; stroke-linecap: square"/>
   </g>
   <g id="line2d_26">
    <path d="M 102.533803 122.277944 
L 102.533803 93.807797 
" clip-path="url(#p30205ee7ad)" style="fill: none; stroke: #000000; stroke-width: 1.5; stroke-linecap: square"/>
   </g>
   <g id="line2d_27">
    <path d="M 102.533803 122.277944 
L 102.533803 93.807797 
" clip-path="url(#p30205ee7ad)" style="fill: none; stroke: #000000; stroke-width: 1.5; stroke-linecap: square"/>
   </g>
   <g id="line2d_28">
    <path d="M 41.841557 93.807797 
L 41.841557 19.8 
" clip-path="url(#p30205ee7ad)" style="fill: none; stroke: #000000; stroke-width: 1.5; stroke-linecap: square"/>
   </g>
   <g id="line2d_29">
    <path d="M 41.841557 65.337649 
L 41.841557 19.8 
" clip-path="url(#p30205ee7ad)" style="fill: none; stroke: #000000; stroke-width: 1.5; stroke-linecap: square"/>
   </g>
   <g id="line2d_30">
    <path d="M 41.841557 65.337649 
L 41.841557 19.8 
" clip-path="url(#p30205ee7ad)" style="fill: none; stroke: #000000; stroke-width: 1.5; stroke-linecap: square"/>
   </g>
   <g id="line2d_31">
    <path d="M 41.841557 65.337649 
L 41.841557 19.8 
" clip-path="url(#p30205ee7ad)" style="fill: none; stroke: #000000; stroke-width: 1.5; stroke-linecap: square"/>
   </g>
   <g id="line2d_32">
    <path d="M 142.837956 271.8 
L 142.837956 113.013669 
" clip-path="url(#p30205ee7ad)" style="fill: none; stroke: #000000; stroke-width: 1.5; stroke-linecap: square"/>
   </g>
   <g id="line2d_33">
    <path d="M 142.837956 254.114741 
L 142.837956 113.013669 
" clip-path="url(#p30205ee7ad)" style="fill: none; stroke: #000000; stroke-width: 1.5; stroke-linecap: square"/>
   </g>
   <g id="line2d_34">
    <path d="M 142.837956 254.114741 
L 142.837956 113.013669 
" clip-path="url(#p30205ee7ad)" style="fill: none; stroke: #000000; stroke-width: 1.5; stroke-linecap: square"/>
   </g>
   <g id="line2d_35">
    <path d="M 142.837956 254.114741 
L 142.837956 113.013669 
" clip-path="url(#p30205ee7ad)" style="fill: none; stroke: #000000; stroke-width: 1.5; stroke-linecap: square"/>
   </g>
   <g id="line2d_36">
    <path d="M 215.200176 113.013669 
L 215.200176 19.8 
" clip-path="url(#p30205ee7ad)" style="fill: none; stroke: #000000; stroke-width: 1.5; stroke-linecap: square"/>
   </g>
   <g id="line2d_37">
    <path d="M 191.338435 113.013669 
L 191.338435 19.8 
" clip-path="url(#p30205ee7ad)" style="fill: none; stroke: #000000; stroke-width: 1.5; stroke-linecap: square"/>
   </g>
   <g id="line2d_38">
    <path d="M 191.338435 113.013669 
L 191.338435 19.8 
" clip-path="url(#p30205ee7ad)" style="fill: none; stroke: #000000; stroke-width: 1.5; stroke-linecap: square"/>
   </g>
   <g id="line2d_39">
    <path d="M 191.338435 113.013669 
L 191.338435 19.8 
" clip-path="url(#p30205ee7ad)" style="fill: none; stroke: #000000; stroke-width: 1.5; stroke-linecap: square"/>
   </g>
   <g id="line2d_40">
    <path d="M 239.061917 44.423115 
L 239.061917 19.8 
" clip-path="url(#p30205ee7ad)" style="fill: none; stroke: #000000; stroke-width: 1.5; stroke-linecap: square"/>
   </g>
   <g id="line2d_41">
    <path d="M 239.061917 44.423115 
L 239.061917 19.8 
" clip-path="url(#p30205ee7ad)" style="fill: none; stroke: #000000; stroke-width: 1.5; stroke-linecap: square"/>
   </g>
   <g id="line2d_42">
    <path d="M 239.061917 44.423115 
L 239.061917 19.8 
" clip-path="url(#p30205ee7ad)" style="fill: none; stroke: #000000; stroke-width: 1.5; stroke-linecap: square"/>
   </g>
   <g id="patch_2">
    <path d="M 70.609091 131.176972 
C 86.885381 131.176972 102.497228 124.752053 114.006303 113.31723 
C 125.515379 101.882407 131.982017 86.371282 131.982017 70.2 
C 131.982017 54.028718 125.515379 38.517593 114.006303 27.08277 
C 102.497228 15.647947 86.885381 9.223028 70.609091 9.223028 
C 54.332801 9.223028 38.720954 15.647947 27.211879 27.08277 
C 15.702803 38.517593 9.236165 54.028718 9.236165 70.2 
C 9.236165 86.371282 15.702803 101.882407 27.211879 113.31723 
C 38.720954 124.752053 54.332801 131.176972 70.609091 131.176972 
L 70.609091 131.176972 
z
" clip-path="url(#p30205ee7ad)" style="fill: none; stroke-dasharray: 3.7,1.6; stroke-dashoffset: 0; stroke: #800080; stroke-linejoin: miter"/>
   </g>
   <g id="line2d_43">
    <path d="M 70.609091 70.2 
L 102.533803 122.277944 
" clip-path="url(#p30205ee7ad)" style="fill: none; stroke-dasharray: 1.5,2.475; stroke-dashoffset: 0; stroke: #800080; stroke-width: 1.5"/>
   </g>
   <g id="PathCollection_1">
    <defs>
     <path id="m7ed88a31ee" d="M 0 5 
C 1.326016 5 2.597899 4.473168 3.535534 3.535534 
C 4.473168 2.597899 5 1.326016 5 0 
C 5 -1.326016 4.473168 -2.597899 3.535534 -3.535534 
C 2.597899 -4.473168 1.326016 -5 0 -5 
C -1.326016 -5 -2.597899 -4.473168 -3.535534 -3.535534 
C -4.473168 -2.597899 -5 -1.326016 -5 0 
C -5 1.326016 -4.473168 2.597899 -3.535534 3.535534 
C -2.597899 4.473168 -1.326016 5 0 5 
z
" style="stroke: #000000"/>
    </defs>
    <g clip-path="url(#p30205ee7ad)">
     <use xlink:href="#m7ed88a31ee" x="239.061917" y="44.423115" style="stroke: #000000"/>
     <use xlink:href="#m7ed88a31ee" x="41.841557" y="65.337649" style="stroke: #000000"/>
     <use xlink:href="#m7ed88a31ee" x="102.533803" y="122.277944" style="stroke: #000000"/>
     <use xlink:href="#m7ed88a31ee" x="191.338435" y="113.013669" style="stroke: #000000"/>
     <use xlink:href="#m7ed88a31ee" x="142.837956" y="254.114741" style="stroke: #000000"/>
    </g>
   </g>
   <g id="PathCollection_2">
    <defs>
     <path id="m7a659dd3ef" d="M 0 5 
C 1.326016 5 2.597899 4.473168 3.535534 3.535534 
C 4.473168 2.597899 5 1.326016 5 0 
C 5 -1.326016 4.473168 -2.597899 3.535534 -3.535534 
C 2.597899 -4.473168 1.326016 -5 0 -5 
C -1.326016 -5 -2.597899 -4.473168 -3.535534 -3.535534 
C -4.473168 -2.597899 -5 -1.326016 -5 0 
C -5 1.326016 -4.473168 2.597899 -3.535534 3.535534 
C -2.597899 4.473168 -1.326016 5 0 5 
z
" style="stroke: #800080"/>
    </defs>
    <g clip-path="url(#p30205ee7ad)">
     <use xlink:href="#m7a659dd3ef" x="41.841557" y="65.337649" style="fill: #800080; stroke: #800080"/>
     <use xlink:href="#m7a659dd3ef" x="102.533803" y="122.277944" style="fill: #800080; stroke: #800080"/>
    </g>
   </g>
   <g id="PathCollection_3">
    <defs>
     <path id="m6383dc6a5e" d="M 0 -7.071068 
L -1.587554 -2.18508 
L -6.724985 -2.18508 
L -2.568716 0.834626 
L -4.156269 5.720614 
L -0 2.700907 
L 4.156269 5.720614 
L 2.568716 0.834626 
L 6.724985 -2.18508 
L 1.587554 -2.18508 
z
" style="stroke: #000000; stroke-width: 0.5"/>
    </defs>
    <g clip-path="url(#p30205ee7ad)">
     <use xlink:href="#m6383dc6a5e" x="70.609091" y="70.2" style="fill: #ff0000; stroke: #000000; stroke-width: 0.5"/>
    </g>
   </g>
  </g>
 </g>
 <defs>
  <clipPath id="p30205ee7ad">
   <rect x="7.2" y="7.2" width="279" height="277.2"/>
  </clipPath>
 </defs>
</svg>
